<svg width="448" height="402" viewBox="0 0 448 402" xmlns="http://www.w3.org/2000/svg" xmlns:xlink="http://www.w3.org/1999/xlink">
  <title>
    files
  </title>
  <defs>
    <linearGradient x1="50%" y1="0%" x2="50%" y2="100%" id="a">
      <stop stop-color="#A962BD" offset="0%"/>
      <stop stop-color="#7F3F98" offset="100%"/>
    </linearGradient>
    <linearGradient x1="50%" y1="0%" x2="50%" y2="100%" id="b">
      <stop stop-color="#5B1D58" offset="0%"/>
      <stop stop-color="#361134" offset="100%"/>
    </linearGradient>
    <linearGradient x1="50%" y1="0%" x2="50%" y2="100%" id="c">
      <stop stop-color="#DC5E0C" offset="0%"/>
      <stop stop-color="#D21505" offset="100%"/>
    </linearGradient>
    <linearGradient x1="22.324%" y1="0%" x2="81.661%" y2="100%" id="d">
      <stop stop-color="#5344F1" offset="0%"/>
      <stop stop-color="#CA309D" offset="50.955%"/>
      <stop stop-color="#F69C42" offset="100%"/>
    </linearGradient>
    <path id="e" d="M0 44.3h44.236V.07H0z"/>
  </defs>
  <g fill="none" fill-rule="evenodd">
    <g fill-rule="nonzero">
      <g transform="translate(167.87 169.452)">
        <rect fill="#E16F07" width="84.122" height="81.827" rx="40.914"/>
        <path d="M34.172 26.7h6.125l12.94 30.34H46.29l-2.76-6.756H30.764l-2.76 6.757h-6.772l12.94-30.34zm8.396 17.53l-4.334-10.788L33.9 44.23h8.668zm12.84-19.554h6.667v6.743h-6.668v-6.744zm0 8.766h6.667v23.6h-6.668v-23.6z" fill="#FFF"/>
      </g>
      <g transform="translate(75.504 200.98)">
        <rect fill="#B90319" width="115.476" height="113.182" rx="56.591"/>
        <path d="M92.95 62.572c-1.376-1.37-4.428-2.095-9.07-2.157-3.144-.035-6.927.245-10.905.807-1.782-1.038-3.62-2.17-5.06-3.53-3.877-3.66-7.114-8.737-9.13-14.322.13-.52.242-.98.347-1.447 0 0 2.184-12.536 1.606-16.774-.08-.583-.13-.75-.283-1.203l-.19-.492c-.595-1.385-1.76-2.852-3.586-2.772l-1.072-.034-.03-.002c-2.035 0-3.695 1.052-4.13 2.626-1.325 4.933.04 12.314 2.518 21.874l-.634 1.557c-1.773 4.368-3.995 8.767-5.956 12.648l-.255.504c-2.06 4.08-3.933 7.54-5.63 10.474l-1.75.937c-.13.068-3.13 1.672-3.835 2.103-5.973 3.604-9.932 7.695-10.59 10.942-.207 1.036-.052 2.362 1.01 2.976l1.695.86c.735.374 1.51.562 2.304.562 4.255 0 9.194-5.355 15.998-17.355 7.857-2.584 16.8-4.732 24.64-5.917 5.974 3.4 13.32 5.76 17.958 5.76.824 0 1.534-.08 2.11-.234.89-.238 1.64-.75 2.097-1.445.9-1.37 1.082-3.254.838-5.184-.073-.573-.526-1.28-1.016-1.764zm-44.325 5.14c.952-1.723 1.943-3.54 2.956-5.467 2.47-4.718 4.03-8.41 5.19-11.445 2.31 4.247 5.187 7.856 8.568 10.748.422.36.87.724 1.338 1.085-6.876 1.375-12.82 3.047-18.05 5.08zm7.83-44.62c1.367 0 2.146 3.484 2.21 6.75.065 3.266-.69 5.558-1.63 7.253-.775-2.51-1.15-6.468-1.15-9.056 0 0-.058-4.947.57-4.947zm35.098 44.354c-.42.264-1.618.417-2.39.417-2.49 0-5.572-1.15-9.892-3.022 1.66-.123 3.183-.186 4.548-.186 2.498 0 3.238-.01 5.68.62 2.443.628 2.474 1.907 2.055 2.172zM30.075 85.278c.776-2.144 3.847-6.382 8.388-10.142.286-.234.99-.9 1.633-1.518-4.75 7.653-7.93 10.703-10.02 11.66z" fill="#FFF"/>
      </g>
      <g transform="translate(133.257 273.263)">
        <rect fill="#1486B4" width="131.536" height="128.477" rx="64.238"/>
        <path d="M35.67 42.545h17.222c2.53 0 4.787.352 6.775 1.056 1.987.705 3.673 1.7 5.057 2.987 1.385 1.287 2.45 2.825 3.192 4.614.742 1.79 1.114 3.77 1.114 5.942v.12c0 2.454-.442 4.605-1.325 6.455-.883 1.85-2.097 3.398-3.643 4.644-1.545 1.248-3.352 2.183-5.42 2.806-2.066.623-4.284.935-6.653.935h-7.046V84.77H35.67V42.545zm16.62 21.293c2.33 0 4.135-.614 5.42-1.84 1.284-1.227 1.926-2.745 1.926-4.554v-.12c0-2.092-.672-3.68-2.017-4.766-1.346-1.086-3.182-1.628-5.51-1.628h-7.166v12.908h7.346zM83.742 85.37c-2.288 0-4.626-.39-7.015-1.175-2.388-.784-4.666-2.02-6.834-3.71l3.914-6.032c1.766 1.287 3.522 2.252 5.27 2.896 1.745.642 3.38.964 4.906.964 1.325 0 2.298-.22 2.92-.664.623-.442.934-1.025.934-1.75v-.12c0-.482-.18-.904-.542-1.266-.362-.362-.853-.674-1.476-.935-.623-.263-1.335-.514-2.138-.755-.803-.24-1.646-.503-2.53-.784-1.123-.32-2.257-.713-3.4-1.175-1.145-.463-2.18-1.066-3.102-1.81-.924-.744-1.676-1.66-2.258-2.744-.582-1.085-.873-2.412-.873-3.98v-.12c0-1.65.31-3.107.932-4.374.622-1.267 1.465-2.342 2.53-3.227 1.063-.886 2.307-1.55 3.732-1.992 1.425-.442 2.96-.663 4.607-.663 2.048 0 4.125.332 6.233.995 2.107.664 4.044 1.58 5.81 2.745l-3.492 6.333c-1.605-.925-3.17-1.66-4.696-2.202-1.525-.542-2.87-.814-4.034-.814-1.124 0-1.967.21-2.53.633-.56.423-.842.956-.842 1.6v.12c0 .442.18.834.542 1.176.36.343.843.664 1.445.966.602.3 1.295.593 2.077.874.783.282 1.616.563 2.5.845 1.123.362 2.267.794 3.43 1.297 1.166.502 2.21 1.116 3.133 1.84.923.723 1.686 1.608 2.288 2.653.602 1.046.903 2.313.903 3.8v.12c0 1.81-.31 3.37-.933 4.676-.623 1.308-1.496 2.383-2.62 3.228-1.124.844-2.438 1.477-3.944 1.9-1.506.422-3.122.633-4.848.633z" fill="#FFF"/>
      </g>
      <g transform="translate(241.12 313.255)">
        <rect fill="#DE4713" width="77.239" height="74.945" rx="37.472"/>
        <path fill="#FFF" d="M52.658 12.764v50.203L24.63 54.323V21.408"/>
        <path d="M39.7 28.152c.966-.136 1.828-.08 2.587.176.76.264 1.403.702 1.932 1.316.528.623.934 1.403 1.218 2.336.283.94.425 1.998.425 3.168v.066c0 1.32-.17 2.48-.506 3.47-.337.982-.8 1.79-1.39 2.42-.59.623-1.28 1.066-2.07 1.334-.79.26-1.637.355-2.542.288l-2.69-.2V48.5l-3.542-.59V29.08l6.577-.928zm1.986 9.292c.52-.586.78-1.317.78-2.185v-.06c0-1.003-.272-1.75-.816-2.238-.545-.478-1.288-.682-2.23-.615l-2.9.205v5.7l2.973.04c.942.01 1.673-.27 2.193-.848z" fill="#DD4714"/>
      </g>
      <g transform="translate(328.6 173.706)">
        <rect fill="#089EC4" width="103.965" height="101.69" rx="50.845"/>
        <path fill="#FFF" d="M32.274 29.66l38.57-12.642v67.087l-38.347-12.31"/>
        <path fill="#0895BB" d="M42.205 42.88l3.098 11.2 3.356-11.97 2.82-.317 3.355 12.604 3.098-13.27 3.44-.383-5.107 20.1-2.863-.297-3.377-12.166-3.376 11.467-2.864-.297-5.107-16.278"/>
      </g>
      <g transform="translate(258.956 167.75)">
        <ellipse fill="url(#a)" cx="38.219" cy="38.291" rx="38.219" ry="38.291"/>
        <g fill="#FFF">
          <path d="M33.513 25.76c-.537-.216-1.14-.1-1.557.305l-7.438 7.35c-.13.13-.24.276-.302.454h-4.023c-.298 0-.54.232-.54.53v8.58c0 .293.242.53.54.53h4.023c.062.165.17.324.302.445l7.437 7.348c.283.263.655.41 1.02.41.18 0 .36-.035.537-.095.528-.23.88-.74.88-1.296v-23.26c0-.574-.352-1.08-.88-1.302M40.97 33.808c-.77-.745-2.1-.745-2.855 0-.386.377-.603.883-.603 1.423 0 .53.217 1.03.603 1.405.547.55.86 1.28.86 2.04 0 .787-.313 1.513-.86 2.066-.81.765-.81 2.044 0 2.82.38.386.883.585 1.424.585.537 0 1.045-.2 1.43-.584 1.32-1.303 2.05-3.036 2.05-4.885 0-1.833-.73-3.556-2.05-4.867"/>
          <path d="M46.228 28.62c-.764-.752-2.09-.752-2.853 0-.793.782-.793 2.04 0 2.825 1.965 1.94 3.033 4.49 3.033 7.23s-1.068 5.306-3.033 7.254c-.793.79-.793 2.05 0 2.83.365.378.888.59 1.424.59.54 0 1.05-.212 1.428-.59 2.727-2.688 4.23-6.265 4.23-10.084 0-3.79-1.503-7.373-4.23-10.056"/>
          <path d="M48.642 23.428c-.793.786-.793 2.054 0 2.827 3.37 3.324 5.21 7.73 5.21 12.42 0 4.697-1.84 9.128-5.21 12.45-.4.376-.596.873-.596 1.413 0 .532.197 1.04.596 1.404.365.393.88.587 1.428.587.536 0 1.047-.195 1.425-.588 4.134-4.078 6.416-9.495 6.416-15.266 0-5.75-2.28-11.166-6.407-15.248-.76-.756-2.12-.756-2.86 0"/>
        </g>
      </g>
      <g transform="translate(206.113 225.375)">
        <rect fill="#40A506" width="96.358" height="94.063" rx="47.032"/>
        <path d="M63.798 16.824V77.94L28.976 66.955V27.812" fill="#FFF"/>
        <path fill="#40A507" d="M46.85 44.17l-4.512-7.733-3.76.516 6.3 10.168-6.56 10.43 3.657.55 4.77-8.048 4.8 9.493 3.76.567-6.588-13.04 6.328-12.38-3.656.503"/>
      </g>
      <g transform="translate(368.518 265.605)">
        <ellipse fill="url(#b)" cx="39.493" cy="39.567" rx="39.493" ry="39.567"/>
        <path d="M20.384 25.668c0-1.017.816-1.843 1.832-1.843H57.62c1.012 0 1.832.832 1.832 1.843v28.65c0 1.017-.816 1.842-1.832 1.842H22.216c-1.012 0-1.832-.832-1.832-1.843v-28.65zm27.348 8.467c1.65 0 2.987-1.364 2.987-3.046 0-1.683-1.338-3.047-2.988-3.047s-2.988 1.364-2.988 3.046c0 1.68 1.338 3.045 2.988 3.045zm-5.99 11.416c.346.48.927.505 1.315.04l4.52-5.432c.38-.456.96-.436 1.293.047L56.078 50.6c.334.483.128.874-.47.874H24.923c-.593 0-.82-.407-.507-.908l9.128-14.638c.313-.502.84-.53 1.194-.042l7.004 9.665z" fill="#FFF"/>
      </g>
      <g transform="translate(289.53 252.84)">
        <ellipse fill="url(#c)" cx="43.144" cy="43.144" rx="43.144" ry="43.144"/>
        <path d="M57.024 51.717l-4.163-2.41v5.54c0 1.48-1.18 2.678-2.633 2.678h-22.1c-1.453 0-2.633-1.2-2.633-2.678V32.093c0-1.478 1.18-2.677 2.634-2.677H50.227c1.454 0 2.635 1.2 2.635 2.677v5.67l4.162-2.37 6.512-3.707c.652-.37 1.18.087 1.18.475v22.307c0 .94-.664 1.316-1.47.85l-.31-.18-5.912-3.42z" fill="#FFF"/>
      </g>
    </g>
    <g transform="translate(0 66)" fill-rule="nonzero">
      <rect fill="#0077B5" width="84.122" height="81.827" rx="40.914"/>
      <path d="M36.363 34.59V60h7.733V47.69c0-4.124 1.52-6.748 5.17-6.748 2.634 0 3.67 2.434 3.67 6.75V60h7.733V45.966c0-7.578-1.814-11.708-9.453-11.708-3.985 0-6.638 1.865-7.673 3.94v-3.61h-7.18zM23.105 59.67h7.734V34.257h-7.735v25.41zm8.838-33.698c0-2.746-2.226-4.972-4.97-4.972C24.225 21 22 23.226 22 25.972c0 2.745 2.226 4.97 4.972 4.97 2.745 0 4.97-2.225 4.97-4.97z" fill="#FFF"/>
    </g>
    <g transform="translate(42)">
      <rect fill="url(#d)" fill-rule="nonzero" width="84.122" height="81.827" rx="40.914"/>
      <g transform="translate(19.028 18.045)">
        <mask id="f" fill="#fff">
          <use xlink:href="#e"/>
        </mask>
        <path d="M22.118.07c-6.007 0-6.76.025-9.12.133C10.646.31 9.04.683 7.63 1.23c-1.455.566-2.688 1.322-3.918 2.552S1.726 6.245 1.162 7.7C.613 9.107.24 10.714.13 13.07.026 15.427 0 16.18 0 22.187c0 6.007.025 6.76.133 9.12.108 2.353.48 3.96 1.028 5.368.566 1.454 1.323 2.688 2.552 3.917 1.23 1.23 2.463 1.986 3.918 2.55 1.407.548 3.015.922 5.37 1.03 2.358.107 3.11.133 9.118.133 6.007 0 6.76-.026 9.12-.133 2.353-.108 3.96-.482 5.368-1.03 1.454-.564 2.688-1.32 3.917-2.55 1.23-1.23 1.986-2.463 2.552-3.917.546-1.407.92-3.015 1.028-5.37.107-2.358.133-3.11.133-9.118 0-6.007-.026-6.76-.133-9.12-.108-2.354-.482-3.96-1.028-5.368-.566-1.455-1.322-2.688-2.552-3.918s-2.463-1.986-3.917-2.55C35.2.683 33.59.31 31.236.2 28.88.096 28.127.07 22.12.07m0 3.985c5.906 0 6.605.022 8.937.13 2.157.097 3.328.458 4.107.76 1.033.402 1.77.88 2.544 1.655.774.774 1.253 1.51 1.654 2.543.303.78.663 1.95.762 4.107.106 2.332.13 3.032.13 8.938 0 5.906-.024 6.605-.13 8.937-.1 2.157-.46 3.328-.762 4.107-.4 1.033-.88 1.77-1.654 2.543-.774.774-1.51 1.254-2.544 1.655-.78.303-1.95.663-4.107.76-2.332.108-3.03.13-8.937.13-5.906 0-6.606-.022-8.938-.13-2.156-.097-3.327-.457-4.107-.76-1.032-.4-1.77-.88-2.543-1.655-.774-.774-1.253-1.51-1.654-2.543-.303-.78-.663-1.95-.762-4.107-.106-2.332-.13-3.03-.13-8.937 0-5.906.024-6.606.13-8.938.1-2.156.46-3.327.762-4.107.4-1.032.88-1.77 1.654-2.543.774-.774 1.51-1.253 2.543-1.655.78-.302 1.95-.663 4.107-.76 2.333-.108 3.032-.13 8.938-.13" fill="#FFF" fill-rule="nonzero" mask="url(#f)"/>
      </g>
      <path d="M41.146 47.605c-4.072 0-7.373-3.3-7.373-7.372s3.3-7.373 7.373-7.373c4.072 0 7.373 3.3 7.373 7.373 0 4.07-3.302 7.372-7.374 7.372m0-18.73c-6.273 0-11.358 5.085-11.358 11.358 0 6.273 5.085 11.357 11.358 11.357 6.273 0 11.358-5.084 11.358-11.357S47.42 28.875 41.146 28.875M55.607 28.426c0 1.466-1.19 2.654-2.654 2.654-1.466 0-2.655-1.188-2.655-2.654s1.19-2.654 2.655-2.654c1.465 0 2.654 1.188 2.654 2.654" fill="#FFF" fill-rule="nonzero"/>
    </g>
    <g transform="translate(79 66)" fill-rule="nonzero">
      <rect fill="#64CBEE" x=".543" y=".662" width="84.122" height="81.827" rx="40.914"/>
      <path d="M67.04 27.91c-1.672.76-3.475 1.277-5.365 1.508 1.927-1.184 3.4-3.057 4.084-5.29-1.804 1.097-3.8 1.893-5.932 2.32-1.715-1.855-4.156-3.015-6.85-3.013-5.165.004-9.33 4.287-9.3 9.566.004.75.088 1.48.253 2.177-7.78-.394-14.695-4.192-19.348-9.977-.798 1.418-1.25 3.06-1.24 4.81.02 3.315 1.69 6.24 4.21 7.956-1.533-.047-2.98-.48-4.248-1.19v.117c.027 4.633 3.275 8.495 7.566 9.368-.785.226-1.61.338-2.466.34-.603 0-1.192-.058-1.76-.17 1.21 3.796 4.682 6.56 8.78 6.632-3.19 2.567-7.216 4.097-11.6 4.1-.756 0-1.503-.042-2.234-.13 4.157 2.706 9.087 4.287 14.37 4.283 17.22-.01 26.546-14.58 26.473-27.216-.002-.417-.012-.83-.032-1.238 1.822-1.35 3.4-3.036 4.64-4.952z" fill="#FFF"/>
    </g>
    <g transform="translate(120)" fill-rule="nonzero">
      <rect fill="#507CBD" x=".404" y=".632" width="84.122" height="81.827" rx="40.914"/>
      <path d="M34.12 33.13l4.033-.01-.003-4.005c0-1.766.042-4.49 1.297-6.18 1.322-1.79 3.136-3.01 6.257-3.018 5.087-.014 7.23.722 7.23.722l-1.006 6.106s-1.68-.492-3.248-.488c-1.568.005-2.973.583-2.97 2.185v4.655l6.43-.018-.445 5.965-5.982.017.01 20.715-7.56.02-.01-20.714-4.03.01-.003-5.962z" fill="#FFF"/>
    </g>
    <path fill="#18435A" fill-rule="nonzero" d="M222.44 115.008v-12.524h-5.366v12.524H204.55v5.367h12.524v12.523h5.367v-12.523h12.525v-5.367"/>
  </g>
</svg>
