<svg xmlns="http://www.w3.org/2000/svg" xmlns:xlink="http://www.w3.org/1999/xlink" viewBox="0 0 959.95 631.85">
  <defs>
    <style>
      .cls-1,.cls-25,.cls-26,.cls-29,.cls-35,.cls-36,.cls-47,.cls-48,.cls-53,.cls-54{fill:none;}.cls-2{isolation:isolate;}.cls-3,.cls-41,.cls-52{opacity:0.1;}.cls-4{fill:#034475;}.cls-5{fill:#034e91;}.cls-6{opacity:0.3;mix-blend-mode:screen;}.cls-7{fill:url(#linear-gradient);}.cls-8{fill:url(#linear-gradient-2);}.cls-9{fill:url(#linear-gradient-3);}.cls-10{opacity:0.15;}.cls-11{clip-path:url(#clip-path);}.cls-12{opacity:0.27;}.cls-13{fill:#0069bf;}.cls-14,.cls-37,.cls-42,.cls-50{fill:#fff;}.cls-15,.cls-23{fill:#0386e0;}.cls-16{opacity:0.33;}.cls-16,.cls-18{mix-blend-mode:hard-light;}.cls-17{fill:url(#linear-gradient-4);}.cls-18{opacity:0.65;}.cls-19{fill:url(#linear-gradient-5);}.cls-20{opacity:0.21;}.cls-21{fill:url(#linear-gradient-6);}.cls-22{fill:#107fc9;}.cls-23,.cls-41,.cls-42{font-size:27.09px;font-family:SourceSansPro-Semibold, Source Sans Pro;font-weight:700;}.cls-24{fill:url(#linear-gradient-7);}.cls-25{stroke:#006166;}.cls-25,.cls-26,.cls-35{stroke-linecap:round;}.cls-25,.cls-26,.cls-29,.cls-35,.cls-36,.cls-47,.cls-48,.cls-53,.cls-54{stroke-miterlimit:10;}.cls-25,.cls-26,.cls-36,.cls-47,.cls-48,.cls-53,.cls-54{stroke-width:1.2px;}.cls-26,.cls-35{stroke:#034475;}.cls-27{fill:url(#linear-gradient-8);}.cls-28{fill:url(#linear-gradient-9);}.cls-29,.cls-53{stroke:#000;}.cls-29{stroke-width:0.15px;}.cls-30{fill:#ccc;}.cls-31{fill:#f2f2f2;}.cls-32{fill:url(#linear-gradient-10);}.cls-33{fill:url(#linear-gradient-11);}.cls-34{fill:url(#linear-gradient-12);}.cls-35{stroke-width:0.6px;}.cls-36,.cls-47,.cls-48,.cls-54{stroke:#fff;}.cls-36{stroke-dasharray:4.64;}.cls-36,.cls-46{opacity:0.61;}.cls-37{opacity:0.6;}.cls-38{fill:url(#linear-gradient-13);}.cls-39{opacity:0.35;}.cls-40{fill:url(#linear-gradient-14);}.cls-43{fill:url(#linear-gradient-15);}.cls-44{fill:url(#linear-gradient-16);}.cls-45{fill:url(#linear-gradient-17);}.cls-47{stroke-dasharray:4.7 4.7;}.cls-48{stroke-dasharray:4.63 4.63;}.cls-49{fill:url(#linear-gradient-18);}.cls-50{opacity:0.56;}.cls-51{fill:#68c1f2;}.cls-52{mix-blend-mode:multiply;}.cls-55{fill:url(#linear-gradient-19);}.cls-56{fill:url(#linear-gradient-20);}.cls-57{fill:url(#linear-gradient-21);}.cls-58{fill:url(#linear-gradient-22);}.cls-59{fill:url(#linear-gradient-23);}.cls-60{fill:url(#linear-gradient-24);}.cls-61{fill:url(#linear-gradient-25);}
    </style>
    <linearGradient id="linear-gradient" x1="-93.44" x2="-86.24" y1="-640.52" y2="-640.52" gradientTransform="matrix(.87 .5 -1 .58 -129.44 430.13)" gradientUnits="userSpaceOnUse">
      <stop offset="0" stop-color="#0bf9cb"/>
      <stop offset="1" stop-color="#21d1e8"/>
    </linearGradient>
    <linearGradient id="linear-gradient-2" x1="-80.84" x2="-73.64" y1="-640.52" y2="-640.52" xlink:href="#linear-gradient"/>
    <linearGradient id="linear-gradient-3" x1="-68.24" x2="-61.04" y1="-640.52" y2="-640.52" xlink:href="#linear-gradient"/>
    <clipPath id="clip-path">
      <path d="M956.77 358.17l-514.42-297c-4.57-2.64-12.63-2.31-17.91.74L413 68.49 35 286.73c-5.28 3-5.86 7.7-1.29 10.34l514.42 297c4.57 2.64 12.63 2.31 17.91-.74l378-218.24 11.4-6.58c5.33-3.05 5.91-7.7 1.33-10.34z" class="cls-1"/>
    </clipPath>
    <linearGradient id="linear-gradient-4" x1="653.93" x2="155.92" y1="456.23" y2="52.56" gradientUnits="userSpaceOnUse">
      <stop offset="0" stop-color="#0ff" stop-opacity="0"/>
      <stop offset="1" stop-color="#00e4ff"/>
    </linearGradient>
    <linearGradient id="linear-gradient-5" x1="412.7" x2="43.7" y1="81.85" y2="284.05" xlink:href="#linear-gradient-4"/>
    <linearGradient id="linear-gradient-6" x1="354.84" x2="414.18" y1="65.39" y2="65.39" xlink:href="#linear-gradient"/>
    <linearGradient id="linear-gradient-7" x1="151.59" x2="301.67" y1="322.52" y2="322.52" gradientUnits="userSpaceOnUse">
      <stop offset="0" stop-color="#00e4ff"/>
      <stop offset="1" stop-color="#0ff" stop-opacity="0"/>
    </linearGradient>
    <linearGradient id="linear-gradient-8" x1="649.14" x2="756.54" y1="214.23" y2="150.03" gradientUnits="userSpaceOnUse">
      <stop offset="0" stop-color="#15baff"/>
      <stop offset="1" stop-color="#00b8cb"/>
    </linearGradient>
    <linearGradient id="linear-gradient-9" x1="328.15" x2="864.6" y1="242.84" y2="242.84" xlink:href="#linear-gradient"/>
    <linearGradient id="linear-gradient-10" x1="348.69" x2="432.72" y1="357.28" y2="357.28" gradientUnits="userSpaceOnUse">
      <stop offset="0" stop-color="#e4bcff"/>
      <stop offset="1" stop-color="#8271ff"/>
    </linearGradient>
    <linearGradient id="linear-gradient-11" x1="260.79" x2="343.16" y1="347.04" y2="347.04" gradientUnits="userSpaceOnUse">
      <stop offset="0" stop-color="#21d1e8"/>
      <stop offset="1" stop-color="#0bf9cb"/>
    </linearGradient>
    <linearGradient id="linear-gradient-12" x1="274.33" x2="414.23" y1="412.03" y2="412.03" gradientUnits="userSpaceOnUse">
      <stop offset="0" stop-color="#0069bf"/>
      <stop offset="1" stop-color="#239cd5"/>
    </linearGradient>
    <linearGradient id="linear-gradient-13" x1="-14.7" x2="137.71" y1="-402.63" y2="-402.63" gradientTransform="matrix(.87 .5 -1 .58 -129.44 430.13)" gradientUnits="userSpaceOnUse">
      <stop offset="0" stop-color="#76abe8"/>
      <stop offset="1" stop-color="#5b35d6"/>
    </linearGradient>
    <linearGradient id="linear-gradient-14" x1="311.55" x2="341.55" y1="155.04" y2="292.44" gradientUnits="userSpaceOnUse">
      <stop offset="0" stop-color="#76e3e8"/>
      <stop offset="1" stop-color="#9865d6"/>
    </linearGradient>
    <linearGradient id="linear-gradient-15" x1="349.29" x2="432.64" y1="349.08" y2="349.08" gradientUnits="userSpaceOnUse">
      <stop offset="0" stop-color="#8271ff"/>
      <stop offset="1" stop-color="#e4bcff"/>
    </linearGradient>
    <linearGradient id="linear-gradient-16" x1="260.79" x2="343.76" y1="338.83" y2="338.83" xlink:href="#linear-gradient"/>
    <linearGradient id="linear-gradient-17" x1="274.33" x2="414.23" y1="403.82" y2="403.82" gradientUnits="userSpaceOnUse">
      <stop offset="0" stop-color="#239cd5"/>
      <stop offset="1" stop-color="#0069bf"/>
    </linearGradient>
    <linearGradient id="linear-gradient-18" x1="399.4" x2="930.13" y1="182.36" y2="182.36" xlink:href="#linear-gradient-11"/>
    <linearGradient id="linear-gradient-19" x1="110.97" x2="164.65" y1="103.1" y2="103.1" xlink:href="#linear-gradient-15"/>
    <linearGradient id="linear-gradient-20" x1="110.97" x2="137.81" y1="126.49" y2="126.49" xlink:href="#linear-gradient-15"/>
    <linearGradient id="linear-gradient-21" x1="-3237.85" x2="-3209.37" y1="135.75" y2="114.85" gradientTransform="matrix(-1 0 0 1 -3074 0)" xlink:href="#linear-gradient-10"/>
    <linearGradient id="linear-gradient-22" x1="21.32" x2="110.68" y1="524.9" y2="524.9" xlink:href="#linear-gradient"/>
    <linearGradient id="linear-gradient-23" x1="21.32" x2="125.56" y1="519.21" y2="519.21" xlink:href="#linear-gradient"/>
    <linearGradient id="linear-gradient-24" x1="66" x2="66" y1="487.73" y2="487.73" xlink:href="#linear-gradient"/>
    <linearGradient id="linear-gradient-25" x1="29" x2="73.68" y1="519.21" y2="519.21" xlink:href="#linear-gradient"/>
  </defs>
  <g class="cls-2">
    <g id="Layer_2" data-name="Layer 2">
      <g id="BG">
        <path d="M956.77 394.17l-514.42-297c-4.57-2.64-12.63-2.31-17.91.74L413 104.49 35 322.73c-5.28 3-5.86 7.7-1.29 10.34l514.42 297c4.57 2.64 12.63 2.31 17.91-.74l378-218.24 11.4-6.58c5.33-3.05 5.91-7.7 1.33-10.34z" class="cls-3"/>
        <path d="M956.77 364.17l-514.42-297c-4.57-2.64-12.63-2.31-17.91.74L413 74.49 35 292.73c-1.71 1-3.6-2.08-4.31-.88-.5.85-.07 5.95-.06 6.8 0 1.66 1 3.24 3.08 4.42l514.42 297c4.57 2.64 12.63 2.31 17.91-.74l378-218.24 11.4-6.58c2.47-1.43 3.92-3.21 4.28-5 .22-1.06.33-6.52-.24-7.49s-1.56 2.81-2.71 2.15z" class="cls-4"/>
        <path d="M956.77 358.17l-514.42-297c-4.57-2.64-12.63-2.31-17.91.74L413 68.49 35 286.73c-5.28 3-5.86 7.7-1.29 10.34l514.42 297c4.57 2.64 12.63 2.31 17.91-.74l378-218.24 11.4-6.58c5.33-3.05 5.91-7.7 1.33-10.34z" class="cls-5"/>
        <path d="M436.39 17.21a7.47 7.47 0 0 1-6.72.28c-1.72-1-1.51-2.73.48-3.88a7.47 7.47 0 0 1 6.72-.28c1.73.99 1.51 2.73-.48 3.88z" class="cls-7"/>
        <path d="M447.3 23.51a7.47 7.47 0 0 1-6.72.28c-1.72-1-1.51-2.73.48-3.88a7.47 7.47 0 0 1 6.72-.28c1.73.99 1.51 2.73-.48 3.88z" class="cls-8"/>
        <path d="M458.22 29.81a7.47 7.47 0 0 1-6.72.28c-1.72-1-1.51-2.73.48-3.88a7.47 7.47 0 0 1 6.72-.28c1.72.99 1.5 2.73-.48 3.88z" class="cls-9"/>
        <path d="M548.14 147.09l10.12-13.5c1.57-2.09 1-4.34-1.48-5.77L488 88.13a12 12 0 0 0-7.68-1l-27.81 4.74L413 69.09l-26.4 15.24 531 306.6 26.4-15.24z" class="cls-10"/>
        <g class="cls-11">
          <path d="M53.58 311.43l-27.54-15.91 360.6-208.19 27.54 15.9-360.6 208.2z" class="cls-12"/>
          <path d="M497.1 511.2l85.21-3.71c.42-11.95-6.48-23.42-21.21-31.92-19.44-11.23-47.82-14.65-75.28-10.73zM502.15 515.79l36.08 37.74a114.89 114.89 0 0 0 14-6.82c17.18-9.92 27-22.23 29.48-34.39zM494.64 518.56l-28.1 44.63a151.61 151.61 0 0 0 64.2-6.87zM489.09 513.84l-.35-1.45-.76-.79h.56l-11-45.31a131 131 0 0 0-39.65 14.42c-36.47 21.06-40.43 52.91-8.84 71.15 8.47 4.89 18.66 8.25 29.7 10.23z" class="cls-13"/>
          <g class="cls-3">
            <path d="M346.86 423l69.73 22.61c20.07-19.52 18.21-43.32-7.35-58.07-15.74-9.09-37.42-13-59.66-11.93zM338.57 424l2.76-47.86c-19 1.93-37.87 7.41-53.34 16.34-30.53 17.63-37.81 42.91-20.2 61.13zM343.22 427.58l-71.32 29.83a56.53 56.53 0 0 0 7.38 5.13c31.08 17.95 85.38 15.7 121.27-5a87.51 87.51 0 0 0 11.26-7.7z"/>
          </g>
        </g>
        <path d="M436.39 71.81a7.47 7.47 0 0 1-6.72.28c-1.72-1-1.51-2.73.48-3.88a7.47 7.47 0 0 1 6.72-.28c1.73.99 1.51 2.73-.48 3.88zM447.3 78.11a7.47 7.47 0 0 1-6.72.28c-1.72-1-1.51-2.73.48-3.88a7.47 7.47 0 0 1 6.72-.28c1.73.99 1.51 2.77-.48 3.88zM458.22 84.41a7.47 7.47 0 0 1-6.72.28c-1.72-1-1.51-2.73.48-3.88a7.47 7.47 0 0 1 6.72-.28c1.72.99 1.5 2.73-.48 3.88z" class="cls-3"/>
        <path d="M522.43 90.84l-46.25-26.7c-.71-.41-.62-1.14.2-1.62a3.12 3.12 0 0 1 2.8-.12l46.25 26.7c.71.41.62 1.14-.2 1.62a3.12 3.12 0 0 1-2.8.12z" class="cls-14"/>
        <path d="M226.94 396.13l-126.8-73.2 99-57.16 126.8 73.21-99 57.15z" class="cls-13"/>
        <path d="M189.58 351.7l-60.28-34.8c-.86-.49-.75-1.37.24-1.94a3.75 3.75 0 0 1 3.36-.14l60.28 34.8c.86.49.75 1.37-.24 1.94a3.75 3.75 0 0 1-3.36.14zM167.59 350.78L119 322.7c-.77-.45-.67-1.23.22-1.75l.36-.21a3.38 3.38 0 0 1 3-.13l48.63 28.08c.77.45.67 1.23-.22 1.75l-.36.21a3.38 3.38 0 0 1-3.04.13z" class="cls-15"/>
        <path d="M956.77 358.17l-514.42-297c-4.57-2.64-12.63-2.31-17.91.74L413 68.49 35 286.73c-5.28 3-5.86 7.7-1.29 10.34l514.42 297c4.57 2.64 12.63 2.31 17.91-.74l378-218.24 11.4-6.58c5.33-3.05 5.91-7.7 1.33-10.34z" class="cls-16 cls-17"/>
        <path d="M53.58 303.63l-27.54-15.9v-4.21l360.6-203.99 27.54 11.7v4.2l-360.6 208.2z" class="cls-4"/>
        <path d="M53.58 299.43l-27.54-15.91 360.6-208.19 27.54 15.9-360.6 208.2z" class="cls-13"/>
        <path d="M53.58 299.43l-27.54-15.91 360.6-208.19 27.54 15.9-360.6 208.2z" class="cls-18 cls-19"/>
        <path d="M382.38 109.52l-27.54-15.91 31.8-18.35 27.54 15.9-31.8 18.36z" class="cls-20"/>
        <path d="M382.38 82.52l-27.54-15.91 31.8-18.35 27.54 15.9-31.8 18.36z" class="cls-21"/>
        <path d="M350.58 128.12l-27.54-15.9 31.8-18.36 27.54 15.9-31.8 18.36z" class="cls-20"/>
        <path d="M350.58 112.52l-27.54-15.91 31.8-18.35 27.54 15.9-31.8 18.36zM318.78 146.31l-27.54-15.9 31.8-18.36 27.54 15.9-31.8 18.36z" class="cls-22"/>
        <path d="M286.98 164.67l-27.54-15.9 31.8-18.36 27.54 15.9-31.8 18.36z" class="cls-22"/>
        <path d="M291.64 150.74a9.69 9.69 0 0 0 1-.49 7.57 7.57 0 0 0 .85-.57l-.61-.68a3.71 3.71 0 0 0 .68-.83l1.39-.28a2.55 2.55 0 0 0 .18-1.41l-1.34-.16a2.36 2.36 0 0 0-.48-.78l.79-.74a4.73 4.73 0 0 0-.72-.51 6.6 6.6 0 0 0-.88-.41l-1.28.45a7.86 7.86 0 0 0-1.36-.28l-.28-.77a12.76 12.76 0 0 0-2.44.1l-.48.8a10 10 0 0 0-1.44.39l-1.18-.35a9.63 9.63 0 0 0-1 .49 7.48 7.48 0 0 0-.85.57l.61.68a3.79 3.79 0 0 0-.68.83l-1.39.28a2.56 2.56 0 0 0-.18 1.41l1.34.16a2.35 2.35 0 0 0 .48.78l-.78.74a4.68 4.68 0 0 0 .72.51 6.4 6.4 0 0 0 .88.41l1.29-.45a7.8 7.8 0 0 0 1.36.28l.28.77a12.81 12.81 0 0 0 2.44-.1l.48-.8a10 10 0 0 0 1.44-.39zm-6.5-1.71c-1.29-.74-1.13-2 .36-2.9a5.59 5.59 0 0 1 5-.21c1.29.74 1.12 2-.37 2.9a5.59 5.59 0 0 1-4.99.18z" class="cls-14"/>
        <g class="cls-3">
          <path d="M379.04 69.14l5.77-.24-2.68-1.55-3.09 1.79z"/>
          <path d="M385.38 60l-11.09 6.4 4.21 2.48 3.71-2.14 3.21 1.85 7.42-4.28zm2.06 6.19L382.09 63l.62-.36 5.35 3.09zm1.24-.71l-5.35-3.09.62-.36 5.35 3.09zm1.24-.71l-5.35-3.09.62-.36 5.35 3.09z"/>
        </g>
        <path d="M379.04 53.76l5.77-.24-2.68-1.55-3.09 1.79z" class="cls-14"/>
        <path d="M385.38 44.57L374.29 51l4.21 2.48 3.71-2.14 3.21 1.85 7.42-4.28zm2.06 6.19l-5.35-3.09.62-.36 5.35 3.09zm1.24-.71L383.33 47l.62-.36 5.35 3.09zm1.24-.71l-5.35-3.09.62-.36 5.35 3.11zM353.6 86.41a10.35 10.35 0 0 0-1.87-2.64l1.56-.9a6 6 0 0 0 2.69-.73l1.4-.66c1.54-.89 2.39-2.35.69-3.33-1.93-1.12-4.17-.47-5.7.42l-1.21.79a2.21 2.21 0 0 0-1.28 1.64l-1.49.86a32.29 32.29 0 0 0-4.63-1.1 1.69 1.69 0 0 0-1 .18l-.76.44c-.42.24-.47.61-.1.82l9.25 5.34a1.58 1.58 0 0 0 1.42-.06l.76-.44c.24-.19.36-.43.27-.63z" class="cls-14"/>
        <path d="M353.6 100.63a10.35 10.35 0 0 0-1.87-2.63l1.56-.9a6 6 0 0 0 2.69-.73l1.4-.66c1.54-.89 2.39-2.35.69-3.33-1.93-1.12-4.17-.47-5.7.42l-1.21.79a2.21 2.21 0 0 0-1.26 1.61l-1.49.86a32.29 32.29 0 0 0-4.63-1.1 1.69 1.69 0 0 0-1 .18l-.76.44c-.42.24-.47.61-.1.82l9.25 5.34a1.58 1.58 0 0 0 1.42-.06l.76-.44c.22-.17.34-.4.25-.61z" class="cls-3"/>
        <path d="M326.18 125.32c-2.89-1.67-7.94-1.46-11.28.47s-3.7 4.84-.81 6.51 7.94 1.46 11.28-.47 3.7-4.83.81-6.51zm-1.42 5.59l-1.83-1.06a16.48 16.48 0 0 0 3.29-2.57c.61 1.17.11 2.55-1.46 3.63zm.6-4.59a13.68 13.68 0 0 1-3.49 2.92l-2.45-1.42a22.16 22.16 0 0 1 5.22-1.94l.29.15a4.35 4.35 0 0 1 .43.29zm-2.3-1a24.33 24.33 0 0 0-4.67 1.88l-1.89-1.09a10.74 10.74 0 0 1 6.56-.76zm-7.78 1.53l1.86 1.07a12.89 12.89 0 0 0-3 2.52c-.72-1.09-.31-2.44 1.14-3.56zm-.22 4.53a10 10 0 0 1 3.11-2.86l2.44 1.41a20.58 20.58 0 0 1-4.94 1.8l-.34-.17zm2.27.89a23.44 23.44 0 0 0 4.34-1.73l1.81 1a10.82 10.82 0 0 1-6.15.76z" class="cls-14"/>
        <path d="M492.08 418.27l-126.8-73.21 99-57.15 126.8 73.2-99 57.16z" class="cls-13"/>
        <path d="M457.11 372.45l-60.28-34.8c-.86-.49-.75-1.37.24-1.94a3.75 3.75 0 0 1 3.36-.14l60.28 34.8c.86.49.75 1.37-.24 1.94a3.75 3.75 0 0 1-3.36.14zM435.11 371.53l-48.63-28.08c-.77-.45-.67-1.23.22-1.75l.36-.21a3.38 3.38 0 0 1 3-.13l48.63 28.08c.77.45.67 1.23-.22 1.75l-.36.21a3.38 3.38 0 0 1-3 .13zM471.52 312.53c-4.8 2.77-12.07 3.08-16.23.67s-3.64-6.6 1.17-9.37 12.07-3.08 16.23-.67 3.64 6.59-1.17 9.37z" class="cls-15"/>
        <text class="cls-23" transform="matrix(.75 .43 -.87 .5 517.02 349.08)">
          26%
        </text>
        <path d="M259.67 365.84l-108.08-62.4 42-24.25 108.08 62.4-42 24.25z" class="cls-16 cls-24"/>
        <path d="M517.01 390.41l-103.14-60.04 23.4-13.09 103.14 59.43-23.4 13.7z" class="cls-15"/>
        <path d="M643.8 506.94l-126.79-73.21 99-57.16 126.79 73.21-99 57.16z" class="cls-13"/>
        <path d="M608.84 461.12l-60.28-34.8c-.86-.49-.75-1.37.24-1.94a3.75 3.75 0 0 1 3.36-.14L612.44 459c.86.49.75 1.37-.24 1.94a3.75 3.75 0 0 1-3.36.18zM586.84 460.19l-48.63-28.08c-.77-.45-.67-1.23.22-1.75l.36-.21a3.38 3.38 0 0 1 3-.13l48.63 28.08c.77.45.67 1.23-.22 1.75l-.36.21a3.38 3.38 0 0 1-3 .13zM623.25 401.19c-4.8 2.77-12.07 3.08-16.23.67s-3.64-6.6 1.17-9.37 12.07-3.08 16.23-.67 3.64 6.6-1.17 9.37z" class="cls-15"/>
        <text class="cls-23" transform="matrix(.75 .43 -.87 .5 669.34 437.16)">
          1.2k
        </text>
        <path d="M354.84 66.61l27.54 15.91 31.8-18.36" class="cls-25"/>
        <path d="M323.04 96.61l27.54 15.91 31.8-18.36M259.44 148.77l27.54 15.9 63.6-36.72" class="cls-26"/>
        <path d="M758.4 451.1L328.15 202.7l106.2-61.31 430.25 248.4-106.2 61.31z" class="cls-3"/>
        <path d="M758.4 403.7L328.15 155.3l.18-6.25 106.02-55.06 430.38 242.26-.13 6.14-106.2 61.31z" class="cls-27"/>
        <path d="M758.4 397.7L328.15 149.3l106.2-61.31 430.25 248.4-106.2 61.31z" class="cls-28"/>
        <path d="M758.4 397.7L328.15 149.3l2.4-1.39 430.25 248.4-2.4 1.39zM758.4 390.5L328.15 142.1l2.4-1.38 430.25 248.4-2.4 1.38z" class="cls-14"/>
        <path d="M777.6 386.62l-430.25-248.4M795 376.57l-430.25-248.4M812.4 366.53L382.15 118.12M829.8 356.48l-430.25-248.4M847.2 346.44L416.95 98.03" class="cls-29"/>
        <path d="M328.15 142.1v13.45l430.38 248.5v-13.8L328.15 142.1z" class="cls-30"/>
        <path d="M760.93 389.05v13.19l-2.4 1.81v-13.8l2.4-1.2z" class="cls-31"/>
        <path d="M348.69 369.76l70.31 22.6c9.09-8.84 13.68-18.56 13.61-27.92 0-3.56.36-8-.35-12.41-1.27-7.86-11-12.21-20.6-17.74-15.74-9.09-38-13-60.26-11.93z" class="cls-32"/>
        <path d="M341 356.16l2.16-47.86c-19 1.93-37.27 7.41-52.74 16.34-30.53 17.63-37.81 42.91-20.2 61.13z" class="cls-33"/>
        <path d="M345.65 388.49l-71.32 21.62v8.21a56.53 56.53 0 0 0 7.38 5.13c31.08 17.95 85.38 15.7 121.27-5a87.51 87.51 0 0 0 11.26-7.7v-8.21z" class="cls-34"/>
        <path d="M318.78 146.31l-27.54-15.9" class="cls-35"/>
        <path d="M707.78 400.47L447.74 250.65" class="cls-36"/>
        <path d="M440.48 246.57l5.85.67 5.86.68-4.68 2.71-4.69 2.7-1.17-3.38-1.17-3.38z" class="cls-37"/>
        <path d="M340.35 332.61l-126.8-73.21 99-57.15 126.8 73.2-99 57.16z" class="cls-3"/>
        <path d="M340.35 296.61l-126.8-73.2v-6l99-51.16 126.8 67.2v6l-99 57.16z" class="cls-38"/>
        <path d="M340.95 291.21L214.15 218l99-57.15 126.8 73.2-99 57.16z" class="cls-40"/>
        <path d="M305.38 244.79L245.11 210c-.86-.49-.75-1.37.24-1.94a3.75 3.75 0 0 1 3.36-.14L309 242.71c.86.49.75 1.37-.24 1.94a3.75 3.75 0 0 1-3.38.14zM283.39 243.87l-48.63-28.08c-.77-.45-.67-1.23.22-1.75l.36-.21a3.38 3.38 0 0 1 3-.13L287 241.79c.77.45.67 1.23-.22 1.75l-.36.21a3.38 3.38 0 0 1-3.03.12zM319.8 184.87c-4.8 2.77-12.07 3.08-16.23.67s-3.64-6.6 1.17-9.37 12.07-3.08 16.23-.67 3.63 6.59-1.17 9.37z" class="cls-3"/>
        <text class="cls-41" transform="matrix(.75 .43 -.87 .5 360.53 217.75)">
          53.2k
        </text>
        <path d="M305.38 231.15l-60.28-34.8c-.86-.49-.75-1.37.24-1.94a3.75 3.75 0 0 1 3.36-.14l60.3 34.8c.86.49.75 1.37-.24 1.94a3.75 3.75 0 0 1-3.38.14zM283.39 230.22l-48.63-28.08c-.77-.45-.67-1.23.22-1.75l.36-.21a3.38 3.38 0 0 1 3-.13L287 228.14c.77.45.67 1.23-.22 1.75l-.36.21a3.38 3.38 0 0 1-3.03.12zM319.8 171.22c-4.8 2.77-12.07 3.08-16.23.67s-3.64-6.6 1.17-9.37 12.07-3.08 16.23-.67 3.63 6.6-1.17 9.37z" class="cls-14"/>
        <text class="cls-42" transform="matrix(.75 .43 -.87 .5 360.53 204.11)">
          53.2k
        </text>
        <path d="M349.29 361.55L419 384.16c20.07-19.52 18.21-43.32-7.35-58.07-15.74-9.09-37.42-13-59.66-11.93z" class="cls-43"/>
        <path d="M341 348l2.76-47.86c-19 1.93-37.87 7.41-53.34 16.34-30.53 17.63-37.81 42.91-20.2 61.13z" class="cls-44"/>
        <path d="M345.65 380.28l-71.32 29.83a56.53 56.53 0 0 0 7.38 5.13c31.08 17.95 85.38 15.7 121.27-5a87.51 87.51 0 0 0 11.26-7.7z" class="cls-45"/>
        <path d="M665.47 479.05l-103.14-60.03 23.4-13.1 103.14 59.43-23.4 13.7z" class="cls-15"/>
        <path d="M381.7 320.58c-21 12.15-52.88 13.47-71.11 2.95s-15.94-28.9 5.11-41.05 52.88-13.47 71.11-2.95 15.93 28.9-5.11 41.05z" class="cls-46 cls-47"/>
        <path d="M410.71 383.86c-33 19-82.86 21.11-111.42 4.62s-25-45.29 8-64.33 82.86-21.11 111.42-4.62 24.97 45.29-8 64.33z" class="cls-46 cls-48"/>
        <path d="M547.54 103.89l10.12-13.5a3.91 3.91 0 0 0 .87-2.41c0-.83 1.18-4.68.53-5.38-.36-.38-2.34 2.33-2.88 2l-68.75-39.7a12 12 0 0 0-7.68-1l-27.81 4.74-39.49-22.8-25.92 10.41-.53 4.88 531 306.6 26.4-15.24.44-4.64z" class="cls-4"/>
        <path d="M548.14 99.09l10.12-13.5c1.57-2.09 1-4.34-1.48-5.77L488 40.13a12 12 0 0 0-7.68-1l-27.81 4.74L413 21.09l-26.4 15.24 531 306.6 26.4-15.24z" class="cls-13"/>
        <path d="M914.77 335L400.36 38c-1.43-.83-1.25-2.29.4-3.24l8.38-4.84a6.26 6.26 0 0 1 5.61-.23l514.4 297c1.43.83 1.25 2.29-.4 3.24l-8.38 4.84a6.26 6.26 0 0 1-5.6.23z" class="cls-49"/>
        <path d="M505.63 92l-93-53.7c-.71-.41-.62-1.14.2-1.62a11 11 0 0 1 2.8-.72l93 53.7c.71 1 .62 1.74-.2 2.22a3.12 3.12 0 0 1-2.8.12z" class="cls-50"/>
        <path d="M523.63 77l-46.25-26.7c-.71-.41-.62-1.14.2-1.62a3.12 3.12 0 0 1 2.8-.12l46.25 26.7c.71.41.62 1.14-.2 1.62a3.12 3.12 0 0 1-2.8.12z" class="cls-51"/>
        <g class="cls-52">
          <path d="M395.5 129.62a6.22 6.22 0 0 1-5.6.23c-1.43-.83-1.25-2.28.4-3.23a6.22 6.22 0 0 1 5.6-.23c1.43.83 1.25 2.27-.4 3.23zM453.59 141.68a6.22 6.22 0 0 1-5.6.23c-1.43-.83-1.25-2.28.4-3.23a6.22 6.22 0 0 1 5.6-.23c1.44.83 1.26 2.27-.4 3.23zM493.08 164.48a6.22 6.22 0 0 1-5.6.23c-1.43-.83-1.25-2.28.4-3.23a6.22 6.22 0 0 1 5.6-.23c1.44.83 1.26 2.27-.4 3.23zM497.17 207.72a6.22 6.22 0 0 1-5.6.23c-1.43-.83-1.25-2.28.4-3.23a6.22 6.22 0 0 1 5.6-.23c1.43.83 1.26 2.27-.4 3.23zM553.46 220.82a6.22 6.22 0 0 1-5.6.23c-1.43-.83-1.25-2.28.4-3.23a6.22 6.22 0 0 1 5.6-.23c1.44.83 1.26 2.27-.4 3.23zM584 248.82a6.22 6.22 0 0 1-5.6.23c-1.43-.83-1.25-2.28.4-3.23a6.22 6.22 0 0 1 5.6-.23c1.39.82 1.21 2.27-.4 3.23zM653.44 254.3a6.22 6.22 0 0 1-5.6.23c-1.43-.83-1.25-2.28.4-3.23a6.22 6.22 0 0 1 5.6-.23c1.44.82 1.26 2.27-.4 3.23zM671.93 289.22a6.22 6.22 0 0 1-5.6.23c-1.43-.83-1.25-2.28.4-3.23a6.22 6.22 0 0 1 5.6-.23c1.44.83 1.26 2.27-.4 3.23zM746.22 291.93a6.22 6.22 0 0 1-5.6.23c-1.43-.83-1.25-2.28.4-3.23a6.22 6.22 0 0 1 5.6-.23c1.44.82 1.26 2.3-.4 3.23zM779.71 318.19a6.22 6.22 0 0 1-5.6.23c-1.43-.83-1.25-2.28.4-3.23a6.22 6.22 0 0 1 5.6-.23c1.44.83 1.26 2.28-.4 3.23zM826.41 336.84a6.22 6.22 0 0 1-5.6.23c-1.43-.83-1.25-2.28.4-3.23a6.22 6.22 0 0 1 5.6-.23c1.43.82 1.25 2.27-.4 3.23z"/>
          <path d="M392.9 128.12c20.87 2.35 41.74 4.7 58.09 12.06s32 15.71 39.49 22.8c9 8.54-9 36.38 4.09 43.24s46.94 7.7 56.29 13.1 12.86 22 30.49 28 50.54-3.38 69.49 5.48 3.54 29.76 18.49 34.92 60.86-5.74 74.29 2.71 22.5 20.61 33.49 26.26 46.69 18.64 46.69 18.64" class="cls-53"/>
        </g>
        <path d="M395.5 69.62a6.22 6.22 0 0 1-5.6.23c-1.43-.83-1.25-2.28.4-3.23a6.22 6.22 0 0 1 5.6-.23c1.43.83 1.25 2.27-.4 3.23zM453.59 81.68a6.22 6.22 0 0 1-5.6.23c-1.43-.83-1.25-2.28.4-3.23a6.22 6.22 0 0 1 5.6-.23c1.44.83 1.26 2.27-.4 3.23zM493.08 104.48a6.22 6.22 0 0 1-5.6.23c-1.43-.83-1.25-2.28.4-3.23a6.22 6.22 0 0 1 5.6-.23c1.44.83 1.26 2.27-.4 3.23zM497.17 147.72a6.22 6.22 0 0 1-5.6.23c-1.43-.83-1.25-2.28.4-3.23a6.22 6.22 0 0 1 5.6-.23c1.43.83 1.26 2.27-.4 3.23zM553.46 160.82a6.22 6.22 0 0 1-5.6.23c-1.43-.83-1.25-2.28.4-3.23a6.22 6.22 0 0 1 5.6-.23c1.44.83 1.26 2.27-.4 3.23zM584 188.82a6.22 6.22 0 0 1-5.6.23c-1.43-.83-1.25-2.28.4-3.23a6.22 6.22 0 0 1 5.6-.23c1.39.82 1.21 2.27-.4 3.23zM653.44 194.3a6.22 6.22 0 0 1-5.6.23c-1.43-.83-1.25-2.28.4-3.23a6.22 6.22 0 0 1 5.6-.23c1.44.82 1.26 2.27-.4 3.23zM671.93 229.22a6.22 6.22 0 0 1-5.6.23c-1.43-.83-1.25-2.28.4-3.23a6.22 6.22 0 0 1 5.6-.23c1.44.83 1.26 2.27-.4 3.23zM746.22 231.93a6.22 6.22 0 0 1-5.6.23c-1.43-.83-1.25-2.28.4-3.23a6.22 6.22 0 0 1 5.6-.23c1.44.82 1.26 2.3-.4 3.23zM779.71 258.19a6.22 6.22 0 0 1-5.6.23c-1.43-.83-1.25-2.28.4-3.23a6.22 6.22 0 0 1 5.6-.23c1.44.83 1.26 2.28-.4 3.23zM826.41 276.84a6.22 6.22 0 0 1-5.6.23c-1.43-.83-1.25-2.28.4-3.23a6.22 6.22 0 0 1 5.6-.23c1.43.82 1.25 2.27-.4 3.23z" class="cls-14"/>
        <path d="M392.9 68.12c20.87 2.35 41.74 4.7 58.09 12.06S483 95.9 490.48 103c9 8.54-9 36.38 4.09 43.24s46.94 7.7 56.29 13.1 12.86 22 30.49 28 50.54-3.38 69.49 5.48 3.54 29.76 18.49 34.92 60.86-5.74 74.29 2.71 22.5 20.61 33.49 26.26 46.69 18.64 46.69 18.64" class="cls-54"/>
        <path d="M137.81 179.6l-26.84-15.5 26.84-15.5 26.84 15.5-26.84 15.5z" class="cls-3"/>
        <path d="M137.81 118.6l-26.84-15.5 26.84-15.49 26.84 15.49-26.84 15.5z" class="cls-55"/>
        <path d="M110.97 134.38V103.1l26.84 15.5v31.27l-26.84-15.49z" class="cls-56"/>
        <path d="M164.65 134.38V103.1l-26.84 15.5v31.27l26.84-15.49z" class="cls-57"/>
        <path d="M66 590.7l-44.68-25.8L66 539.11l44.68 25.79L66 590.7z" class="cls-3"/>
        <path d="M66 550.7l-44.68-25.8L66 499.11l44.68 25.79L66 550.7z" class="cls-58"/>
        <path d="M66 550.7v-62.97L21.32 524.9 66 550.7z" class="cls-59"/>
        <path d="M66 487.73l44.68 37.17L66 550.7v-62.97z" class="cls-61"/>
      </g>
    </g>
  </g>
</svg>
