<svg xmlns="http://www.w3.org/2000/svg" xmlns:xlink="http://www.w3.org/1999/xlink" viewBox="0 0 444.3 295.44"><defs><style>.cls-1{opacity:0.1;}.cls-2{fill:url(#linear-gradient);}.cls-3{fill:url(#linear-gradient-2);}.cls-4{fill:url(#linear-gradient-3);}.cls-5{opacity:0.55;}.cls-6{fill:url(#linear-gradient-4);}.cls-7{fill:url(#radial-gradient);}.cls-8{fill:url(#radial-gradient-2);}.cls-9{fill:url(#radial-gradient-3);}.cls-10{fill:url(#radial-gradient-4);}.cls-11{fill:url(#radial-gradient-5);}.cls-12{fill:url(#radial-gradient-6);}.cls-13{fill:url(#radial-gradient-7);}.cls-14{fill:url(#radial-gradient-8);}.cls-15{fill:url(#radial-gradient-9);}.cls-16{fill:url(#radial-gradient-10);}.cls-17{fill:url(#radial-gradient-11);}.cls-18{fill:url(#radial-gradient-12);}.cls-121,.cls-135,.cls-19,.cls-33,.cls-60,.cls-74{opacity:0.6;}.cls-19{fill:url(#linear-gradient-5);}.cls-20{fill:url(#radial-gradient-13);}.cls-21{fill:url(#radial-gradient-14);}.cls-22{fill:url(#radial-gradient-15);}.cls-23{fill:url(#radial-gradient-16);}.cls-24{fill:url(#radial-gradient-17);}.cls-25{fill:url(#radial-gradient-18);}.cls-26{fill:url(#radial-gradient-19);}.cls-27{fill:url(#radial-gradient-20);}.cls-28{fill:url(#radial-gradient-21);}.cls-29{fill:url(#radial-gradient-22);}.cls-30{fill:url(#radial-gradient-23);}.cls-31{fill:url(#radial-gradient-24);}.cls-32{fill:url(#radial-gradient-25);}.cls-33{fill:url(#linear-gradient-6);}.cls-34{fill:url(#linear-gradient-7);}.cls-35{fill:url(#linear-gradient-8);}.cls-36{fill:url(#linear-gradient-9);}.cls-37{fill:url(#radial-gradient-26);}.cls-38{fill:url(#linear-gradient-10);}.cls-39{fill:url(#linear-gradient-11);}.cls-40{fill:url(#linear-gradient-12);}.cls-102,.cls-103,.cls-41,.cls-42,.cls-82,.cls-83{opacity:0.8;}.cls-41{fill:url(#linear-gradient-13);}.cls-42{fill:url(#linear-gradient-14);}.cls-43{fill:url(#linear-gradient-15);}.cls-44{fill:url(#linear-gradient-16);}.cls-45{fill:url(#linear-gradient-17);}.cls-46{fill:url(#linear-gradient-18);}.cls-47{fill:url(#linear-gradient-19);}.cls-48{fill:url(#radial-gradient-27);}.cls-49{fill:url(#radial-gradient-28);}.cls-50{fill:url(#radial-gradient-29);}.cls-51{fill:url(#radial-gradient-30);}.cls-52{fill:url(#radial-gradient-31);}.cls-53{fill:url(#radial-gradient-32);}.cls-54{fill:url(#radial-gradient-33);}.cls-55{fill:url(#radial-gradient-34);}.cls-56{fill:url(#radial-gradient-35);}.cls-57{fill:url(#radial-gradient-36);}.cls-58{fill:url(#radial-gradient-37);}.cls-59{fill:url(#radial-gradient-38);}.cls-60{fill:url(#linear-gradient-20);}.cls-61{fill:url(#radial-gradient-39);}.cls-62{fill:url(#radial-gradient-40);}.cls-63{fill:url(#radial-gradient-41);}.cls-64{fill:url(#radial-gradient-42);}.cls-65{fill:url(#radial-gradient-43);}.cls-66{fill:url(#radial-gradient-44);}.cls-67{fill:url(#radial-gradient-45);}.cls-68{fill:url(#radial-gradient-46);}.cls-69{fill:url(#radial-gradient-47);}.cls-70{fill:url(#radial-gradient-48);}.cls-71{fill:url(#radial-gradient-49);}.cls-72{fill:url(#radial-gradient-50);}.cls-73{fill:url(#radial-gradient-51);}.cls-74{fill:url(#linear-gradient-21);}.cls-75{fill:url(#linear-gradient-22);}.cls-76{fill:url(#linear-gradient-23);}.cls-77{fill:url(#linear-gradient-24);}.cls-78{fill:url(#radial-gradient-52);}.cls-79{fill:url(#linear-gradient-25);}.cls-80{fill:url(#linear-gradient-26);}.cls-81{fill:url(#linear-gradient-27);}.cls-82{fill:url(#linear-gradient-28);}.cls-83{fill:url(#linear-gradient-29);}.cls-84{fill:url(#linear-gradient-30);}.cls-85{isolation:isolate;}.cls-86{fill:none;}.cls-87{fill:url(#linear-gradient-31);}.cls-88{fill:url(#linear-gradient-32);}.cls-89{fill:url(#linear-gradient-33);}.cls-90{fill:url(#linear-gradient-34);}.cls-91{fill:url(#linear-gradient-35);}.cls-92{opacity:0.85;mix-blend-mode:hard-light;}.cls-93{fill:url(#linear-gradient-36);}.cls-94{fill:url(#linear-gradient-37);}.cls-95{fill:url(#linear-gradient-38);}.cls-96{fill:url(#linear-gradient-39);}.cls-97{fill:url(#linear-gradient-40);}.cls-98{fill:url(#radial-gradient-53);}.cls-99{fill:url(#linear-gradient-41);}.cls-100{fill:url(#linear-gradient-42);}.cls-101{fill:url(#linear-gradient-43);}.cls-102{fill:url(#linear-gradient-44);}.cls-103{fill:url(#linear-gradient-45);}.cls-104{fill:url(#linear-gradient-46);}.cls-105{fill:url(#linear-gradient-47);}.cls-106{fill:url(#linear-gradient-48);}.cls-107{fill:url(#linear-gradient-49);}.cls-108{fill:url(#linear-gradient-50);}.cls-109{fill:url(#radial-gradient-54);}.cls-110{fill:url(#radial-gradient-55);}.cls-111{fill:url(#radial-gradient-56);}.cls-112{fill:url(#radial-gradient-57);}.cls-113{fill:url(#radial-gradient-58);}.cls-114{fill:url(#radial-gradient-59);}.cls-115{fill:url(#radial-gradient-60);}.cls-116{fill:url(#radial-gradient-61);}.cls-117{fill:url(#radial-gradient-62);}.cls-118{fill:url(#radial-gradient-63);}.cls-119{fill:url(#radial-gradient-64);}.cls-120{fill:url(#radial-gradient-65);}.cls-121{fill:url(#linear-gradient-51);}.cls-122{fill:url(#radial-gradient-66);}.cls-123{fill:url(#radial-gradient-67);}.cls-124{fill:url(#radial-gradient-68);}.cls-125{fill:url(#radial-gradient-69);}.cls-126{fill:url(#radial-gradient-70);}.cls-127{fill:url(#radial-gradient-71);}.cls-128{fill:url(#radial-gradient-72);}.cls-129{fill:url(#radial-gradient-73);}.cls-130{fill:url(#radial-gradient-74);}.cls-131{fill:url(#radial-gradient-75);}.cls-132{fill:url(#radial-gradient-76);}.cls-133{fill:url(#radial-gradient-77);}.cls-134{fill:url(#radial-gradient-78);}.cls-135{fill:url(#linear-gradient-52);}.cls-136{fill:url(#linear-gradient-53);}.cls-137{fill:url(#linear-gradient-54);}.cls-138{fill:url(#linear-gradient-55);}</style><linearGradient id="linear-gradient" x1="280" y1="49.78" x2="374.3" y2="49.78" gradientUnits="userSpaceOnUse"><stop offset="0" stop-color="#8271ff"/><stop offset="1" stop-color="#e4bcff"/></linearGradient><linearGradient id="linear-gradient-2" x1="300.07" y1="79.22" x2="307.32" y2="61.86" gradientUnits="userSpaceOnUse"><stop offset="0" stop-color="#eed4ff"/><stop offset="1" stop-color="#fff"/></linearGradient><linearGradient id="linear-gradient-3" x1="-9125.25" y1="81.14" x2="-9120.68" y2="66.09" gradientTransform="matrix(-1, 0, 0, 1, -8771.4, 0)" xlink:href="#linear-gradient-2"/><linearGradient id="linear-gradient-4" x1="330.88" y1="50.18" x2="323.53" y2="33.91" xlink:href="#linear-gradient"/><radialGradient id="radial-gradient" cx="322.8" cy="64.21" r="3.5" gradientUnits="userSpaceOnUse"><stop offset="0" stop-color="#e4bcff"/><stop offset="1" stop-color="#8271ff"/></radialGradient><radialGradient id="radial-gradient-2" cx="323.8" cy="71.21" r="3.5" xlink:href="#radial-gradient"/><radialGradient id="radial-gradient-3" cx="318.8" cy="68.21" r="3.5" xlink:href="#radial-gradient"/><radialGradient id="radial-gradient-4" cx="317.8" cy="61.21" r="3.5" xlink:href="#radial-gradient"/><radialGradient id="radial-gradient-5" cx="312.8" cy="65.21" r="3.5" xlink:href="#radial-gradient"/><radialGradient id="radial-gradient-6" cx="307.8" cy="62.21" r="3.5" xlink:href="#radial-gradient"/><radialGradient id="radial-gradient-7" cx="298.8" cy="54.21" r="3.5" xlink:href="#radial-gradient"/><radialGradient id="radial-gradient-8" cx="289.8" cy="50.21" r="3.5" xlink:href="#radial-gradient"/><radialGradient id="radial-gradient-9" cx="286.8" cy="44.21" r="3.5" xlink:href="#radial-gradient"/><radialGradient id="radial-gradient-10" cx="282.8" cy="48.21" r="3.5" xlink:href="#radial-gradient"/><radialGradient id="radial-gradient-11" cx="294.8" cy="48.21" r="3.5" xlink:href="#radial-gradient"/><radialGradient id="radial-gradient-12" cx="293.8" cy="54.21" r="3.5" xlink:href="#radial-gradient"/><linearGradient id="linear-gradient-5" x1="280" y1="59.47" x2="327.15" y2="59.47" gradientUnits="userSpaceOnUse"><stop offset="0" stop-color="#fff"/><stop offset="1" stop-color="#eed4ff"/></linearGradient><radialGradient id="radial-gradient-13" cx="328.8" cy="67.21" r="3.5" xlink:href="#radial-gradient"/><radialGradient id="radial-gradient-14" cx="333.99" cy="141.79" r="3.5" gradientTransform="translate(477.5 -271.87) rotate(90)" xlink:href="#radial-gradient"/><radialGradient id="radial-gradient-15" cx="334.68" cy="132.87" r="3.5" gradientTransform="translate(476.58 -276.56) rotate(90)" xlink:href="#radial-gradient"/><radialGradient id="radial-gradient-16" cx="346.8" cy="56.21" r="3.5" xlink:href="#radial-gradient"/><radialGradient id="radial-gradient-17" cx="333.83" cy="120.69" r="3.5" gradientTransform="translate(474.41 -282.7) rotate(90)" xlink:href="#radial-gradient"/><radialGradient id="radial-gradient-18" cx="334.51" cy="111.77" r="3.5" gradientTransform="translate(473.49 -287.39) rotate(90)" xlink:href="#radial-gradient"/><radialGradient id="radial-gradient-19" cx="337.77" cy="116.06" r="3.5" gradientTransform="translate(475.78 -285.65) rotate(90)" xlink:href="#radial-gradient"/><radialGradient id="radial-gradient-20" cx="338.29" cy="103.54" r="3.5" gradientTransform="translate(474.26 -292.16) rotate(90)" xlink:href="#radial-gradient"/><radialGradient id="radial-gradient-21" cx="338.29" cy="109.37" r="3.5" gradientTransform="translate(475.09 -289.16) rotate(90)" xlink:href="#radial-gradient"/><radialGradient id="radial-gradient-22" cx="338.11" cy="123.26" r="3.5" gradientTransform="translate(476.98 -281.99) rotate(90)" xlink:href="#radial-gradient"/><radialGradient id="radial-gradient-23" cx="337.94" cy="137.16" r="3.5" gradientTransform="translate(478.87 -274.81) rotate(90)" xlink:href="#radial-gradient"/><radialGradient id="radial-gradient-24" cx="338.46" cy="130.47" r="3.5" gradientTransform="translate(478.18 -278.33) rotate(90)" xlink:href="#radial-gradient"/><radialGradient id="radial-gradient-25" cx="338.28" cy="144.36" r="3.5" gradientTransform="translate(480.08 -271.16) rotate(90)" xlink:href="#radial-gradient"/><linearGradient id="linear-gradient-6" x1="327.15" y1="59.47" x2="374.3" y2="59.47" xlink:href="#linear-gradient-5"/><linearGradient id="linear-gradient-7" y1="27.22" x2="374.3" y2="27.22" xlink:href="#linear-gradient-5"/><linearGradient id="linear-gradient-8" x1="300.07" y1="56.66" x2="307.32" y2="39.3" xlink:href="#linear-gradient-2"/><linearGradient id="linear-gradient-9" x1="-9125.25" y1="58.58" x2="-9120.68" y2="43.53" gradientTransform="matrix(-1, 0, 0, 1, -8771.4, 0)" xlink:href="#linear-gradient-2"/><radialGradient id="radial-gradient-26" cx="300.13" cy="61.61" r="7.22" gradientTransform="matrix(0.8, -0.61, 0.44, 0.58, 34.22, 207.73)" xlink:href="#radial-gradient"/><linearGradient id="linear-gradient-10" x1="260.03" y1="82.93" x2="259.22" y2="81.56" gradientUnits="userSpaceOnUse"><stop offset="0" stop-color="#c2fbff" stop-opacity="0.8"/><stop offset="1" stop-color="#4ad1d9" stop-opacity="0.5"/></linearGradient><linearGradient id="linear-gradient-11" x1="219.73" y1="115.27" x2="215.17" y2="107.55" gradientUnits="userSpaceOnUse"><stop offset="0" stop-color="#4ad1d9" stop-opacity="0.5"/><stop offset="1" stop-color="#c2fbff" stop-opacity="0.8"/></linearGradient><linearGradient id="linear-gradient-12" x1="263.97" y1="89.02" x2="259.96" y2="82.24" xlink:href="#linear-gradient-11"/><linearGradient id="linear-gradient-13" x1="270.85" y1="39.2" x2="278.71" y2="38.93" gradientTransform="matrix(0.8, -0.46, 0.04, 1.13, 75.91, 146.78)" gradientUnits="userSpaceOnUse"><stop offset="0" stop-color="#8271ff"/><stop offset="1" stop-color="#e4bcff" stop-opacity="0"/></linearGradient><linearGradient id="linear-gradient-14" x1="244.62" y1="38.62" x2="252.47" y2="38.35" xlink:href="#linear-gradient-13"/><linearGradient id="linear-gradient-15" x1="301.35" y1="61.22" x2="306.06" y2="57.76" xlink:href="#radial-gradient"/><linearGradient id="linear-gradient-16" x1="349" y1="89.78" x2="443.3" y2="89.78" xlink:href="#linear-gradient"/><linearGradient id="linear-gradient-17" x1="369.07" y1="119.22" x2="376.32" y2="101.86" xlink:href="#linear-gradient-2"/><linearGradient id="linear-gradient-18" x1="-9194.25" y1="121.14" x2="-9189.68" y2="106.09" gradientTransform="matrix(-1, 0, 0, 1, -8771.4, 0)" xlink:href="#linear-gradient-2"/><linearGradient id="linear-gradient-19" x1="399.88" y1="90.18" x2="392.53" y2="73.91" xlink:href="#linear-gradient"/><radialGradient id="radial-gradient-27" cx="391.8" cy="104.21" r="3.5" xlink:href="#radial-gradient"/><radialGradient id="radial-gradient-28" cx="392.8" cy="111.21" r="3.5" xlink:href="#radial-gradient"/><radialGradient id="radial-gradient-29" cx="387.8" cy="108.21" r="3.5" xlink:href="#radial-gradient"/><radialGradient id="radial-gradient-30" cx="386.8" cy="101.21" r="3.5" xlink:href="#radial-gradient"/><radialGradient id="radial-gradient-31" cx="381.8" cy="105.21" r="3.5" xlink:href="#radial-gradient"/><radialGradient id="radial-gradient-32" cx="376.8" cy="102.21" r="3.5" xlink:href="#radial-gradient"/><radialGradient id="radial-gradient-33" cx="367.8" cy="94.21" r="3.5" xlink:href="#radial-gradient"/><radialGradient id="radial-gradient-34" cx="358.8" cy="90.21" r="3.5" xlink:href="#radial-gradient"/><radialGradient id="radial-gradient-35" cx="355.8" cy="84.21" r="3.5" xlink:href="#radial-gradient"/><radialGradient id="radial-gradient-36" cx="351.8" cy="88.21" r="3.5" xlink:href="#radial-gradient"/><radialGradient id="radial-gradient-37" cx="363.8" cy="88.21" r="3.5" xlink:href="#radial-gradient"/><radialGradient id="radial-gradient-38" cx="362.8" cy="94.21" r="3.5" xlink:href="#radial-gradient"/><linearGradient id="linear-gradient-20" x1="349" y1="99.47" x2="396.15" y2="99.47" xlink:href="#linear-gradient-5"/><radialGradient id="radial-gradient-39" cx="397.8" cy="107.21" r="3.5" xlink:href="#radial-gradient"/><radialGradient id="radial-gradient-40" cx="403.8" cy="103.21" r="3.5" gradientTransform="translate(507.93 -301.68) rotate(90)" xlink:href="#radial-gradient"/><radialGradient id="radial-gradient-41" cx="404.49" cy="94.29" r="3.5" gradientTransform="translate(507.01 -306.36) rotate(90)" xlink:href="#radial-gradient"/><radialGradient id="radial-gradient-42" cx="415.8" cy="96.21" r="3.5" xlink:href="#radial-gradient"/><radialGradient id="radial-gradient-43" cx="403.63" cy="82.11" r="3.5" gradientTransform="translate(504.83 -312.51) rotate(90)" xlink:href="#radial-gradient"/><radialGradient id="radial-gradient-44" cx="404.32" cy="73.2" r="3.5" gradientTransform="translate(503.91 -317.19) rotate(90)" xlink:href="#radial-gradient"/><radialGradient id="radial-gradient-45" cx="407.58" cy="77.48" r="3.5" gradientTransform="translate(506.2 -315.45) rotate(90)" xlink:href="#radial-gradient"/><radialGradient id="radial-gradient-46" cx="408.09" cy="64.97" r="3.5" gradientTransform="translate(504.68 -321.97) rotate(90)" xlink:href="#radial-gradient"/><radialGradient id="radial-gradient-47" cx="408.09" cy="70.8" r="3.5" gradientTransform="translate(505.51 -318.97) rotate(90)" xlink:href="#radial-gradient"/><radialGradient id="radial-gradient-48" cx="407.92" cy="84.69" r="3.5" gradientTransform="translate(507.41 -311.79) rotate(90)" xlink:href="#radial-gradient"/><radialGradient id="radial-gradient-49" cx="407.75" cy="98.58" r="3.5" gradientTransform="translate(509.3 -304.62) rotate(90)" xlink:href="#radial-gradient"/><radialGradient id="radial-gradient-50" cx="408.26" cy="91.89" r="3.5" gradientTransform="translate(508.61 -308.14) rotate(90)" xlink:href="#radial-gradient"/><radialGradient id="radial-gradient-51" cx="408.09" cy="105.78" r="3.5" gradientTransform="translate(510.5 -300.96) rotate(90)" xlink:href="#radial-gradient"/><linearGradient id="linear-gradient-21" x1="396.15" y1="99.47" x2="443.3" y2="99.47" xlink:href="#linear-gradient-5"/><linearGradient id="linear-gradient-22" x1="349" y1="67.22" x2="443.3" y2="67.22" xlink:href="#linear-gradient-5"/><linearGradient id="linear-gradient-23" x1="369.07" y1="96.66" x2="376.32" y2="79.3" xlink:href="#linear-gradient-2"/><linearGradient id="linear-gradient-24" x1="-9194.25" y1="98.58" x2="-9189.68" y2="83.53" gradientTransform="matrix(-1, 0, 0, 1, -8771.4, 0)" xlink:href="#linear-gradient-2"/><radialGradient id="radial-gradient-52" cx="369.13" cy="101.61" r="7.22" gradientTransform="matrix(0.8, -0.61, 0.44, 0.58, 30.78, 266.45)" xlink:href="#radial-gradient"/><linearGradient id="linear-gradient-25" x1="329.03" y1="122.93" x2="328.22" y2="121.56" xlink:href="#linear-gradient-10"/><linearGradient id="linear-gradient-26" x1="288.73" y1="155.27" x2="284.17" y2="147.55" xlink:href="#linear-gradient-11"/><linearGradient id="linear-gradient-27" x1="332.97" y1="129.02" x2="328.96" y2="122.24" xlink:href="#linear-gradient-11"/><linearGradient id="linear-gradient-28" x1="354.03" y1="108.34" x2="361.89" y2="108.07" xlink:href="#linear-gradient-13"/><linearGradient id="linear-gradient-29" x1="327.79" y1="107.76" x2="335.65" y2="107.49" xlink:href="#linear-gradient-13"/><linearGradient id="linear-gradient-30" x1="370.35" y1="101.22" x2="375.06" y2="97.76" xlink:href="#radial-gradient"/><linearGradient id="linear-gradient-31" x1="205.52" y1="116.63" x2="194.79" y2="263.97" xlink:href="#linear-gradient"/><linearGradient id="linear-gradient-32" x1="114.25" y1="115.16" x2="405.82" y2="282.9" gradientUnits="userSpaceOnUse"><stop offset="0" stop-color="#5340db"/><stop offset="1" stop-color="#e4bcff"/></linearGradient><linearGradient id="linear-gradient-33" x1="203.71" y1="87.75" x2="192.98" y2="235.1" xlink:href="#linear-gradient"/><linearGradient id="linear-gradient-34" x1="89.92" y1="140.84" x2="74.88" y2="126.97" xlink:href="#linear-gradient-32"/><linearGradient id="linear-gradient-35" x1="119.18" y1="90.17" x2="399.61" y2="251.5" xlink:href="#linear-gradient-32"/><linearGradient id="linear-gradient-36" x1="177.08" y1="153.71" x2="234.4" y2="27.88" gradientUnits="userSpaceOnUse"><stop offset="0" stop-color="#00e4ff"/><stop offset="1" stop-color="aqua" stop-opacity="0.6"/></linearGradient><linearGradient id="linear-gradient-37" x1="215.48" y1="116.96" x2="7.55" y2="183.29" gradientUnits="userSpaceOnUse"><stop offset="0" stop-color="#168b9c" stop-opacity="0.5"/><stop offset="1" stop-color="#07a687"/></linearGradient><linearGradient id="linear-gradient-38" x1="267.52" y1="109.11" x2="315.96" y2="77.82" xlink:href="#linear-gradient-37"/><linearGradient id="linear-gradient-39" x1="177.08" y1="124.84" x2="234.4" y2="-1" xlink:href="#linear-gradient-36"/><linearGradient id="linear-gradient-40" x1="153.75" y1="107.78" x2="55.79" y2="139.03" xlink:href="#linear-gradient-37"/><radialGradient id="radial-gradient-53" cx="131.4" cy="196.47" r="6.32" gradientTransform="matrix(0.8, -0.61, 0.44, 0.58, -59.15, 162.88)" xlink:href="#radial-gradient"/><linearGradient id="linear-gradient-41" x1="90.03" y1="218.66" x2="89.22" y2="217.29" xlink:href="#linear-gradient-10"/><linearGradient id="linear-gradient-42" x1="51.73" y1="250.01" x2="47.17" y2="242.29" xlink:href="#linear-gradient-11"/><linearGradient id="linear-gradient-43" x1="93.97" y1="224.76" x2="89.96" y2="217.98" xlink:href="#linear-gradient-11"/><linearGradient id="linear-gradient-44" x1="141.93" y1="141.85" x2="149.78" y2="141.58" gradientTransform="matrix(-0.78, 0.48, -0.08, -1.13, 211.98, 312.29)" xlink:href="#linear-gradient-13"/><linearGradient id="linear-gradient-45" x1="115.69" y1="141.27" x2="123.55" y2="141" gradientTransform="matrix(-0.78, 0.48, -0.08, -1.13, 211.98, 312.29)" xlink:href="#linear-gradient-13"/><linearGradient id="linear-gradient-46" x1="132.48" y1="196.13" x2="136.6" y2="193.1" xlink:href="#radial-gradient"/><linearGradient id="linear-gradient-47" x1="0" y1="245.78" x2="94.3" y2="245.78" xlink:href="#linear-gradient"/><linearGradient id="linear-gradient-48" x1="20.07" y1="275.22" x2="27.32" y2="257.86" xlink:href="#linear-gradient-2"/><linearGradient id="linear-gradient-49" x1="-8845.25" y1="277.14" x2="-8840.68" y2="262.09" gradientTransform="matrix(-1, 0, 0, 1, -8771.4, 0)" xlink:href="#linear-gradient-2"/><linearGradient id="linear-gradient-50" x1="50.88" y1="246.18" x2="43.53" y2="229.91" xlink:href="#linear-gradient"/><radialGradient id="radial-gradient-54" cx="42.8" cy="260.21" r="3.5" xlink:href="#radial-gradient"/><radialGradient id="radial-gradient-55" cx="43.8" cy="267.21" r="3.5" xlink:href="#radial-gradient"/><radialGradient id="radial-gradient-56" cx="38.8" cy="264.21" r="3.5" xlink:href="#radial-gradient"/><radialGradient id="radial-gradient-57" cx="37.8" cy="257.21" r="3.5" xlink:href="#radial-gradient"/><radialGradient id="radial-gradient-58" cx="32.8" cy="261.21" r="3.5" xlink:href="#radial-gradient"/><radialGradient id="radial-gradient-59" cx="27.8" cy="258.21" r="3.5" xlink:href="#radial-gradient"/><radialGradient id="radial-gradient-60" cx="18.8" cy="250.21" r="3.5" xlink:href="#radial-gradient"/><radialGradient id="radial-gradient-61" cx="9.8" cy="246.21" r="3.5" xlink:href="#radial-gradient"/><radialGradient id="radial-gradient-62" cx="6.8" cy="240.21" r="3.5" xlink:href="#radial-gradient"/><radialGradient id="radial-gradient-63" cx="2.8" cy="244.21" r="3.5" xlink:href="#radial-gradient"/><radialGradient id="radial-gradient-64" cx="14.8" cy="244.21" r="3.5" xlink:href="#radial-gradient"/><radialGradient id="radial-gradient-65" cx="13.8" cy="250.21" r="3.5" xlink:href="#radial-gradient"/><linearGradient id="linear-gradient-51" x1="0" y1="255.47" x2="47.15" y2="255.47" xlink:href="#linear-gradient-5"/><radialGradient id="radial-gradient-66" cx="48.8" cy="263.21" r="3.5" xlink:href="#radial-gradient"/><radialGradient id="radial-gradient-67" cx="357.95" cy="482.73" r="3.5" gradientTransform="translate(538.45 -99.82) rotate(90)" xlink:href="#radial-gradient"/><radialGradient id="radial-gradient-68" cx="358.64" cy="473.81" r="3.5" gradientTransform="translate(537.53 -104.51) rotate(90)" xlink:href="#radial-gradient"/><radialGradient id="radial-gradient-69" cx="66.8" cy="252.21" r="3.5" xlink:href="#radial-gradient"/><radialGradient id="radial-gradient-70" cx="357.78" cy="461.63" r="3.5" gradientTransform="translate(535.35 -110.66) rotate(90)" xlink:href="#radial-gradient"/><radialGradient id="radial-gradient-71" cx="358.47" cy="452.72" r="3.5" gradientTransform="translate(534.43 -115.34) rotate(90)" xlink:href="#radial-gradient"/><radialGradient id="radial-gradient-72" cx="361.73" cy="457" r="3.5" gradientTransform="translate(536.72 -113.6) rotate(90)" xlink:href="#radial-gradient"/><radialGradient id="radial-gradient-73" cx="362.24" cy="444.48" r="3.5" gradientTransform="translate(535.2 -120.12) rotate(90)" xlink:href="#radial-gradient"/><radialGradient id="radial-gradient-74" cx="362.24" cy="450.32" r="3.5" gradientTransform="translate(536.03 -117.12) rotate(90)" xlink:href="#radial-gradient"/><radialGradient id="radial-gradient-75" cx="362.07" cy="464.21" r="3.5" gradientTransform="translate(537.92 -109.94) rotate(90)" xlink:href="#radial-gradient"/><radialGradient id="radial-gradient-76" cx="361.9" cy="478.1" r="3.5" gradientTransform="translate(539.82 -102.77) rotate(90)" xlink:href="#radial-gradient"/><radialGradient id="radial-gradient-77" cx="362.41" cy="471.41" r="3.5" gradientTransform="translate(539.13 -106.29) rotate(90)" xlink:href="#radial-gradient"/><radialGradient id="radial-gradient-78" cx="362.24" cy="485.3" r="3.5" gradientTransform="translate(541.02 -99.11) rotate(90)" xlink:href="#radial-gradient"/><linearGradient id="linear-gradient-52" x1="47.15" y1="255.47" x2="94.3" y2="255.47" xlink:href="#linear-gradient-5"/><linearGradient id="linear-gradient-53" x1="0" y1="223.22" x2="94.3" y2="223.22" xlink:href="#linear-gradient-5"/><linearGradient id="linear-gradient-54" x1="20.07" y1="252.66" x2="27.32" y2="235.3" xlink:href="#linear-gradient-2"/><linearGradient id="linear-gradient-55" x1="-8845.25" y1="254.58" x2="-8840.68" y2="239.53" gradientTransform="matrix(-1, 0, 0, 1, -8771.4, 0)" xlink:href="#linear-gradient-2"/></defs><title>stack-migrate</title><g id="Layer_2" data-name="Layer 2"><g id="BG"><polygon class="cls-1" points="47.15 295.44 0 268.22 47.15 241 94.3 268.22 47.15 295.44"/><polygon class="cls-1" points="397.15 138.44 350 111.22 397.15 84 444.3 111.22 397.15 138.44"/><polygon class="cls-1" points="327.15 98.44 280 71.22 327.15 44 374.3 71.22 327.15 98.44"/><polygon class="cls-2" points="327.15 77 280 49.78 327.15 22.56 374.3 49.78 327.15 77"/><polygon class="cls-3" points="280 64.66 280 49.78 327.15 77 327.15 91.88 280 64.66"/><polygon class="cls-4" points="374.3 64.66 374.3 49.78 327.15 77 327.15 91.88 374.3 64.66"/><g class="cls-5"><polygon class="cls-6" points="327.15 69.14 280 41.92 327.15 14.7 374.3 41.92 327.15 69.14"/><circle class="cls-7" cx="323.8" cy="64.13" r="3.5"/><circle class="cls-8" cx="324.8" cy="71.13" r="3.5"/><circle class="cls-9" cx="319.8" cy="68.13" r="3.5"/><circle class="cls-10" cx="318.8" cy="61.13" r="3.5"/><circle class="cls-11" cx="313.8" cy="65.13" r="3.5"/><circle class="cls-12" cx="308.8" cy="62.13" r="3.5"/><circle class="cls-13" cx="299.8" cy="54.13" r="3.5"/><circle class="cls-14" cx="290.8" cy="50.13" r="3.5"/><circle class="cls-15" cx="287.8" cy="44.13" r="3.5"/><circle class="cls-16" cx="283.8" cy="48.13" r="3.5"/><circle class="cls-17" cx="295.8" cy="48.13" r="3.5"/><circle class="cls-18" cx="294.8" cy="54.13" r="3.5"/><polygon class="cls-19" points="280 49.79 280 41.92 327.15 69.14 327.15 77.02 280 49.79"/><circle class="cls-20" cx="329.8" cy="67.13" r="3.5"/><circle class="cls-21" cx="335.8" cy="63.13" r="3.5" transform="translate(15.4 181.82) rotate(-30.97)"/><circle class="cls-22" cx="343.8" cy="59.13" r="3.5" transform="translate(18.59 185.36) rotate(-30.97)"/><circle class="cls-23" cx="347.8" cy="56.13" r="3.5"/><circle class="cls-24" cx="353.8" cy="52.13" r="3.5" transform="translate(23.62 189.51) rotate(-30.97)"/><circle class="cls-25" cx="361.8" cy="48.13" r="3.5" transform="translate(26.82 193.06) rotate(-30.97)"/><circle class="cls-26" cx="359.8" cy="53.13" r="3.5" transform="translate(23.96 192.74) rotate(-30.97)"/><circle class="cls-27" cx="370.8" cy="47.13" r="3.5" transform="translate(28.62 197.55) rotate(-30.97)"/><circle class="cls-28" cx="365.8" cy="50.13" r="3.5" transform="translate(26.36 195.4) rotate(-30.97)"/><circle class="cls-29" cx="353.8" cy="57.13" r="3.5" transform="translate(21.05 190.22) rotate(-30.97)"/><circle class="cls-30" cx="341.8" cy="64.13" r="3.5" transform="translate(15.74 185.05) rotate(-30.97)"/><circle class="cls-31" cx="347.8" cy="61.13" r="3.5" transform="translate(18.14 187.71) rotate(-30.97)"/><circle class="cls-32" cx="335.8" cy="68.13" r="3.5" transform="translate(12.82 182.53) rotate(-30.97)"/><polygon class="cls-33" points="327.15 69.14 327.15 77.02 374.3 49.79 374.3 41.92 327.15 69.14"/></g><polygon class="cls-34" points="327.15 54.45 280 27.22 327.15 0 374.3 27.22 327.15 54.45"/><polygon class="cls-35" points="280 42.1 280 27.22 327.15 54.45 327.15 69.32 280 42.1"/><polygon class="cls-36" points="374.3 42.1 374.3 27.22 327.15 54.45 327.15 69.32 374.3 42.1"/><path class="cls-37" d="M301.82,56.28c-2.17-1.25-3.94-.25-3.95,2.25a8.64,8.64,0,0,0,3.92,6.79c2.17,1.25,3.93.25,3.94-2.25A8.64,8.64,0,0,0,301.82,56.28Z"/><path class="cls-38" d="M301.88,56.42l-86.54,51.37a2,2,0,0,1,2,.19l86.54-51.37A2,2,0,0,0,301.88,56.42Z"/><path class="cls-39" d="M217.31,108c-1.53-.88-2.78-.18-2.79,1.59a6.1,6.1,0,0,0,2.77,4.79c1.53.88,2.78.18,2.79-1.58A6.1,6.1,0,0,0,217.31,108Z"/><path class="cls-40" d="M303.85,56.61,217.31,108a6.1,6.1,0,0,1,2.77,4.79,1.94,1.94,0,0,1-.81,1.78l86.54-51.37a1.94,1.94,0,0,0,.81-1.78A6.1,6.1,0,0,0,303.85,56.61Z"/><path class="cls-41" d="M301.39,61.5c0,.66-7.14,7.7-9.47,7.18-1.56-.35-1.46-1.37-1.43-1.73C290.69,64.88,301.37,60.84,301.39,61.5Z"/><path class="cls-42" d="M280.49,72.9c0,.66-7.14,7.7-9.47,7.18-1.56-.35-1.46-1.37-1.43-1.73C269.78,76.28,280.46,72.24,280.49,72.9Z"/><path class="cls-43" d="M302.94,55.63h0a2.77,2.77,0,0,0-2.8-.27L299,56a2.77,2.77,0,0,1,2.8.27l.37-.22-.37.22a8.64,8.64,0,0,1,3.92,6.79,2.75,2.75,0,0,1-1.15,2.52l1.12-.65a2.75,2.75,0,0,0,1.15-2.52A8.64,8.64,0,0,0,302.94,55.63Z"/><polygon class="cls-44" points="396.15 117 349 89.78 396.15 62.56 443.3 89.78 396.15 117"/><polygon class="cls-45" points="349 104.66 349 89.78 396.15 117 396.15 131.88 349 104.66"/><polygon class="cls-46" points="443.3 104.66 443.3 89.78 396.15 117 396.15 131.88 443.3 104.66"/><g class="cls-5"><polygon class="cls-47" points="396.15 109.14 349 81.92 396.15 54.7 443.3 81.92 396.15 109.14"/><circle class="cls-48" cx="392.8" cy="104.13" r="3.5"/><circle class="cls-49" cx="393.8" cy="111.13" r="3.5"/><circle class="cls-50" cx="388.8" cy="108.13" r="3.5"/><circle class="cls-51" cx="387.8" cy="101.13" r="3.5"/><circle class="cls-52" cx="382.8" cy="105.13" r="3.5"/><circle class="cls-53" cx="377.8" cy="102.13" r="3.5"/><circle class="cls-54" cx="368.8" cy="94.13" r="3.5"/><circle class="cls-55" cx="359.8" cy="90.13" r="3.5"/><circle class="cls-56" cx="356.8" cy="84.13" r="3.5"/><circle class="cls-57" cx="352.8" cy="88.13" r="3.5"/><circle class="cls-58" cx="364.8" cy="88.13" r="3.5"/><circle class="cls-59" cx="363.8" cy="94.13" r="3.5"/><polygon class="cls-60" points="349 89.79 349 81.92 396.15 109.14 396.15 117.02 349 89.79"/><circle class="cls-61" cx="398.8" cy="107.13" r="3.5"/><circle class="cls-62" cx="404.8" cy="103.13" r="3.5" transform="translate(4.65 223.03) rotate(-30.97)"/><circle class="cls-63" cx="412.8" cy="99.13" r="3.5" transform="translate(7.85 226.58) rotate(-30.97)"/><circle class="cls-64" cx="416.8" cy="96.13" r="3.5"/><circle class="cls-65" cx="422.8" cy="92.13" r="3.5" transform="translate(12.88 230.72) rotate(-30.97)"/><circle class="cls-66" cx="430.8" cy="88.13" r="3.5" transform="translate(16.08 234.27) rotate(-30.97)"/><circle class="cls-67" cx="428.8" cy="93.13" r="3.5" transform="translate(13.22 233.95) rotate(-30.97)"/><circle class="cls-68" cx="439.8" cy="87.13" r="3.5" transform="translate(17.87 238.76) rotate(-30.97)"/><circle class="cls-69" cx="434.8" cy="90.13" r="3.5" transform="translate(15.62 236.61) rotate(-30.97)"/><circle class="cls-70" cx="422.8" cy="97.13" r="3.5" transform="translate(10.3 231.44) rotate(-30.97)"/><circle class="cls-71" cx="410.8" cy="104.13" r="3.5" transform="translate(4.99 226.26) rotate(-30.97)"/><circle class="cls-72" cx="416.8" cy="101.13" r="3.5" transform="translate(7.39 228.92) rotate(-30.97)"/><circle class="cls-73" cx="404.8" cy="108.13" r="3.5" transform="translate(2.08 223.74) rotate(-30.97)"/><polygon class="cls-74" points="396.15 109.14 396.15 117.02 443.3 89.79 443.3 81.92 396.15 109.14"/></g><polygon class="cls-75" points="396.15 94.44 349 67.22 396.15 40 443.3 67.22 396.15 94.44"/><polygon class="cls-76" points="349 82.1 349 67.22 396.15 94.44 396.15 109.32 349 82.1"/><polygon class="cls-77" points="443.3 82.1 443.3 67.22 396.15 94.44 396.15 109.32 443.3 82.1"/><path class="cls-78" d="M370.82,96.28c-2.17-1.25-3.94-.25-3.95,2.25a8.64,8.64,0,0,0,3.92,6.79c2.17,1.25,3.93.25,3.94-2.25A8.64,8.64,0,0,0,370.82,96.28Z"/><path class="cls-79" d="M370.88,96.42l-86.54,51.37a2,2,0,0,1,2,.19l86.54-51.37A2,2,0,0,0,370.88,96.42Z"/><path class="cls-80" d="M286.31,148c-1.53-.88-2.78-.18-2.79,1.59a6.1,6.1,0,0,0,2.77,4.79c1.53.88,2.78.18,2.79-1.58A6.1,6.1,0,0,0,286.31,148Z"/><path class="cls-81" d="M372.85,96.61,286.31,148a6.1,6.1,0,0,1,2.77,4.79,1.94,1.94,0,0,1-.81,1.78l86.54-51.37a1.94,1.94,0,0,0,.81-1.78A6.1,6.1,0,0,0,372.85,96.61Z"/><path class="cls-82" d="M370.39,101.5c0,.66-7.14,7.7-9.47,7.18-1.56-.35-1.46-1.37-1.43-1.73C359.69,104.88,370.37,100.84,370.39,101.5Z"/><path class="cls-83" d="M349.49,112.9c0,.66-7.14,7.7-9.47,7.18-1.56-.35-1.46-1.37-1.43-1.73C338.78,116.28,349.46,112.24,349.49,112.9Z"/><path class="cls-84" d="M371.94,95.63h0a2.77,2.77,0,0,0-2.8-.27L368,96a2.77,2.77,0,0,1,2.8.27l.37-.22-.37.22a8.64,8.64,0,0,1,3.92,6.79,2.75,2.75,0,0,1-1.15,2.52l1.12-.65a2.75,2.75,0,0,0,1.15-2.52A8.64,8.64,0,0,0,371.94,95.63Z"/><g class="cls-85"><path class="cls-1" d="M311,177l-99-57.18c-6.64-3.83-17.36-3.85-24,0L89.61,177c-6.6,3.84-6.54,10,.1,13.88l99,57.18c6.64,3.83,17.36,3.85,24,0l98.42-57.19C317.73,187,317.67,180.83,311,177Z"/><path class="cls-86" d="M86.67,167.39l0-7.52c0,2.53,1.67,5.07,5,7l0,7.52C88.34,172.46,86.66,169.93,86.67,167.39Z"/><path class="cls-87" d="M313,153,214,95.81c-6.64-3.83-17.36-3.85-24,0L91.61,153c-6.6,3.84-6.54,10,.1,13.88l99,57.18c6.64,3.83,17.36,3.85,24,0l98.42-57.19C319.73,163,319.67,156.83,313,153Z"/><path class="cls-88" d="M317.75,161.73c0,.06,0,.12-.05.18a7,7,0,0,1-.8,1.57l-.19.28a9.59,9.59,0,0,1-1.34,1.48,13.42,13.42,0,0,1-1.2.88c-.35.25-.65.51-1,.74l-98.42,57.19a19,19,0,0,1-3.33,1.46c-.42.14-.85.27-1.28.39s-1.11.3-1.69.42-1.38.27-2.08.36l-.48.07c-.94.1-1.9.15-2.86.16h-.45c-.94,0-1.88-.06-2.81-.16l-.43,0a26.88,26.88,0,0,1-2.72-.47l-.49-.12a23.07,23.07,0,0,1-2.35-.72l-.42-.14a18.58,18.58,0,0,1-2.58-1.22l-99-57.18,0,7.5,0-7.5c-3.35-1.93-5-4.47-5-7l0,7.52c0,2.53,1.67,5.07,5,7h0l99,57.18a18.46,18.46,0,0,0,2.45,1.18l.13,0,.41.14c.5.18,1,.36,1.52.51.27.08.56.14.83.2l.49.12.45.11q.83.17,1.68.29l.59.07.42,0,.64.07q.83.07,1.67.09h1.73q.94,0,1.88-.12l.2,0,.48-.07c.5-.06,1-.12,1.48-.21.21,0,.4-.11.61-.15.58-.12,1.13-.26,1.69-.42.3-.08.61-.13.91-.23.14,0,.24-.12.38-.17a19,19,0,0,0,3.33-1.46l98.42-57.19h0l.21-.12c.33-.2.56-.42.85-.63a13.3,13.3,0,0,0,1.18-.87l.11-.08a9.8,9.8,0,0,0,1-1.13c.07-.09.12-.18.18-.27l.19-.28c.1-.15.22-.31.31-.46h0a6.87,6.87,0,0,0,.45-1s0-.1,0-.15,0-.12.05-.18a6.39,6.39,0,0,0,.18-.62h0a5.76,5.76,0,0,0,.11-1s0-.1,0-.15l0-7.52A5.87,5.87,0,0,1,317.75,161.73Z"/></g><g class="cls-85"><path class="cls-86" d="M84.86,138.52l0-7.52c0,2.53,1.67,5.07,5,7l0,7.52C86.53,143.59,84.85,141.05,84.86,138.52Z"/><path class="cls-89" d="M311.21,124.12l-99-57.18c-6.64-3.83-17.36-3.85-24,0L89.8,124.12c-6.6,3.84-6.54,10,.1,13.88l99,57.18c6.64,3.83,17.36,3.85,24,0L311.32,138C317.92,134.17,317.86,128,311.21,124.12Z"/><path class="cls-90" d="M84.88,131l0,7.52c0,2.53,1.67,5.07,5,7l0-7.52C86.55,136.07,84.88,133.53,84.88,131Z"/><path class="cls-91" d="M315.94,132.86c0,.06,0,.12-.05.18a7,7,0,0,1-.8,1.57l-.19.28a9.62,9.62,0,0,1-1.34,1.48,13.46,13.46,0,0,1-1.2.88c-.35.25-.65.51-1,.74L212.9,195.19a19,19,0,0,1-3.33,1.46c-.42.14-.85.27-1.28.39s-1.11.3-1.69.42-1.38.27-2.08.36l-.48.07c-.94.1-1.9.15-2.86.16h-.45c-.94,0-1.88-.06-2.81-.16l-.43,0a26.88,26.88,0,0,1-2.72-.47l-.49-.12a23.08,23.08,0,0,1-2.35-.72l-.42-.14a18.58,18.58,0,0,1-2.58-1.22L89.9,138l0,7.52,99,57.18a18.47,18.47,0,0,0,2.45,1.18l.13,0,.41.14c.5.18,1,.36,1.52.51.27.08.56.14.83.2l.49.12.45.11q.83.17,1.68.29l.59.07.42,0,.64.07q.83.07,1.67.09h1.73q.94,0,1.88-.12l.2,0,.48-.07c.5-.06,1-.12,1.48-.21.21,0,.4-.11.61-.15.58-.12,1.13-.26,1.69-.42.3-.08.61-.13.91-.23.14,0,.24-.12.38-.17a19,19,0,0,0,3.33-1.46l98.42-57.19h0l.21-.12c.33-.2.56-.42.85-.63a13.25,13.25,0,0,0,1.18-.87l.11-.08a9.78,9.78,0,0,0,1-1.13c.07-.09.12-.18.18-.27l.19-.28c.1-.15.22-.31.31-.46h0a6.86,6.86,0,0,0,.45-1s0-.1,0-.15,0-.12.05-.18a6.39,6.39,0,0,0,.18-.62h0a5.76,5.76,0,0,0,.11-1s0-.1,0-.15l0-7.52A5.87,5.87,0,0,1,315.94,132.86Z"/></g><g class="cls-85"><path class="cls-86" d="M84.85,109.65l0-7.52c0,2.53,1.67,5.07,5,7l0,7.52C86.52,114.72,84.84,112.18,84.85,109.65Z"/><g class="cls-92"><path class="cls-93" d="M311.2,95.25l-99-57.18c-6.64-3.83-17.36-3.85-24,0L89.79,95.25c-6.6,3.84-6.54,10,.1,13.88l99,57.18c6.64,3.83,17.36,3.85,24,0l98.42-57.19C317.91,105.29,317.85,99.08,311.2,95.25Z"/></g><path class="cls-94" d="M315.93,104c0,.06,0,.12-.05.18a6.94,6.94,0,0,1-.8,1.57l-.19.28a9.65,9.65,0,0,1-1.34,1.48,13.48,13.48,0,0,1-1.2.88c-.35.25-.64.51-1,.74l-98.42,57.19a19,19,0,0,1-3.33,1.46c-.42.14-.85.27-1.28.39s-1.11.3-1.69.42-1.38.27-2.08.36L204,169c-.94.1-1.9.15-2.86.16h-.45c-.94,0-1.88-.06-2.81-.16l-.43,0a26.9,26.9,0,0,1-2.72-.47l-.49-.12a23.16,23.16,0,0,1-2.35-.72l-.42-.14a18.53,18.53,0,0,1-2.58-1.22l-99-57.18v0c-3.35-1.93-5-4.47-5-7l0,7.52c0,2.53,1.67,5.07,5,7h0l99,57.18a18.54,18.54,0,0,0,2.45,1.18l.13,0,.41.14c.5.18,1,.36,1.52.51.27.08.56.14.83.2l.49.12.45.11q.83.17,1.68.29l.59.07.42,0,.64.07q.83.07,1.67.09h1.73q.94,0,1.88-.12l.2,0,.47-.07c.5-.06,1-.12,1.48-.21.21,0,.4-.11.61-.15.58-.12,1.13-.26,1.69-.42.3-.08.61-.13.91-.23.14,0,.24-.12.38-.17a19,19,0,0,0,3.33-1.46l98.42-57.19h0l.21-.12c.33-.2.56-.42.85-.63a13.17,13.17,0,0,0,1.18-.87l.11-.08a9.86,9.86,0,0,0,1-1.13c.07-.09.12-.18.18-.27l.19-.28c.1-.15.22-.31.31-.46h0a6.87,6.87,0,0,0,.45-1s0-.1,0-.15,0-.12.05-.18a6.37,6.37,0,0,0,.18-.62h0a5.77,5.77,0,0,0,.11-1s0-.1,0-.15l0-7.52A5.87,5.87,0,0,1,315.93,104Z"/></g><g class="cls-85"><path class="cls-86" d="M84.85,80.78l0-7.52c0,2.53,1.67,5.07,5,7l0,7.52C86.52,85.85,84.84,83.31,84.85,80.78Z"/><path class="cls-95" d="M315.93,75.12c0,.06,0,.12-.05.18a7,7,0,0,1-.8,1.57l-.19.28a9.6,9.6,0,0,1-1.34,1.48,13.47,13.47,0,0,1-1.2.88c-.35.25-.65.51-1,.74v0l-98.42,57.19,0,7.52,98.42-57.19h0l.21-.12c.33-.2.56-.42.85-.63a13.3,13.3,0,0,0,1.18-.87l.11-.08a9.78,9.78,0,0,0,1-1.13c.07-.09.12-.18.18-.27l.19-.28c.1-.15.22-.31.31-.46h0a6.86,6.86,0,0,0,.45-1s0-.1,0-.15,0-.12.05-.18a6.38,6.38,0,0,0,.18-.62h0a5.77,5.77,0,0,0,.11-1s0-.1,0-.15l0-7.52A5.87,5.87,0,0,1,315.93,75.12Z"/><g class="cls-92"><path class="cls-96" d="M311.2,66.37l-99-57.18c-6.64-3.83-17.36-3.85-24,0L89.79,66.38c-6.6,3.84-6.54,10,.1,13.88l99,57.18c6.64,3.83,17.36,3.85,24,0l98.42-57.19C317.91,76.42,317.85,70.21,311.2,66.37Z"/></g><path class="cls-97" d="M209.56,138.91c-.42.14-.85.27-1.28.39s-1.11.3-1.69.42-1.38.27-2.08.36l-.48.07c-.94.1-1.9.15-2.86.16h-.45c-.94,0-1.88-.06-2.81-.16l-.43,0a26.9,26.9,0,0,1-2.72-.47l-.49-.12a23.16,23.16,0,0,1-2.35-.72l-.42-.14a18.53,18.53,0,0,1-2.58-1.22l-99-57.18c-3.35-1.93-5-4.47-5-7l0,7.52c0,2.53,1.67,5.07,5,7l99,57.18a18.54,18.54,0,0,0,2.45,1.18l.13,0,.41.14c.5.18,1,.36,1.52.51.27.08.56.14.83.2l.49.12.45.11q.83.17,1.68.29l.59.07.42,0,.64.07q.83.07,1.67.09h1.73q.94,0,1.88-.12l.2,0,.47-.07c.5-.06,1-.12,1.48-.21.21,0,.4-.11.61-.15.58-.12,1.13-.26,1.69-.42.3-.08.61-.13.91-.23.14,0,.24-.12.38-.17a19,19,0,0,0,3.33-1.46l0-7.52A19,19,0,0,1,209.56,138.91Z"/></g><path class="cls-98" d="M132.89,191.8c-1.9-1.1-3.45-.22-3.46,2a7.57,7.57,0,0,0,3.44,5.95c1.9,1.1,3.45.22,3.45-2A7.57,7.57,0,0,0,132.89,191.8Z"/><path class="cls-99" d="M131.88,192.15,45.34,243.52a2,2,0,0,1,2,.19l86.54-51.37A2,2,0,0,0,131.88,192.15Z"/><path class="cls-100" d="M49.31,242.72c-1.53-.88-2.78-.18-2.79,1.59a6.1,6.1,0,0,0,2.77,4.79c1.53.88,2.78.18,2.79-1.58A6.1,6.1,0,0,0,49.31,242.72Z"/><path class="cls-101" d="M133.85,192.35,47.31,243.72a6.1,6.1,0,0,1,2.77,4.79,1.94,1.94,0,0,1-.81,1.78l86.54-51.37a1.94,1.94,0,0,0,.81-1.78A6.1,6.1,0,0,0,133.85,192.35Z"/><path class="cls-102" d="M82.25,226.13c0-.66,6.9-7.92,9.24-7.46,1.57.3,1.5,1.33,1.48,1.68C92.84,222.42,82.29,226.79,82.25,226.13Z"/><path class="cls-103" d="M102.79,214.09c0-.66,6.9-7.92,9.24-7.46,1.57.3,1.5,1.33,1.48,1.68C113.39,210.39,102.84,214.75,102.79,214.09Z"/><path class="cls-104" d="M133.87,191.23h0a2.43,2.43,0,0,0-2.45-.24l-1,.57a2.43,2.43,0,0,1,2.45.24l.33-.19-.33.19a7.57,7.57,0,0,1,3.43,5.95,2.41,2.41,0,0,1-1,2.21l1-.57a2.41,2.41,0,0,0,1-2.21A7.57,7.57,0,0,0,133.87,191.23Z"/><polygon class="cls-105" points="47.15 273 0 245.78 47.15 218.56 94.3 245.78 47.15 273"/><polygon class="cls-106" points="0 260.66 0 245.78 47.15 273 47.15 287.88 0 260.66"/><polygon class="cls-107" points="94.3 260.66 94.3 245.78 47.15 273 47.15 287.88 94.3 260.66"/><g class="cls-5"><polygon class="cls-108" points="47.15 265.14 0 237.92 47.15 210.7 94.3 237.92 47.15 265.14"/><circle class="cls-109" cx="43.8" cy="260.13" r="3.5"/><circle class="cls-110" cx="44.8" cy="267.13" r="3.5"/><circle class="cls-111" cx="39.8" cy="264.13" r="3.5"/><circle class="cls-112" cx="38.8" cy="257.13" r="3.5"/><circle class="cls-113" cx="33.8" cy="261.13" r="3.5"/><circle class="cls-114" cx="28.8" cy="258.13" r="3.5"/><circle class="cls-115" cx="19.8" cy="250.13" r="3.5"/><circle class="cls-116" cx="10.8" cy="246.13" r="3.5"/><circle class="cls-117" cx="7.8" cy="240.13" r="3.5"/><circle class="cls-118" cx="3.8" cy="244.13" r="3.5"/><circle class="cls-119" cx="15.8" cy="244.13" r="3.5"/><circle class="cls-120" cx="14.8" cy="250.13" r="3.5"/><polygon class="cls-121" points="0 245.79 0 237.92 47.15 265.14 47.15 273.02 0 245.79"/><circle class="cls-122" cx="49.8" cy="263.13" r="3.5"/><circle class="cls-123" cx="55.8" cy="259.13" r="3.5" transform="translate(-125.4 65.67) rotate(-30.97)"/><circle class="cls-124" cx="63.8" cy="255.13" r="3.5" transform="translate(-122.2 69.21) rotate(-30.97)"/><circle class="cls-125" cx="67.8" cy="252.13" r="3.5"/><circle class="cls-126" cx="73.8" cy="248.13" r="3.5" transform="translate(-117.17 73.36) rotate(-30.97)"/><circle class="cls-127" cx="81.8" cy="244.13" r="3.5" transform="translate(-113.97 76.91) rotate(-30.97)"/><circle class="cls-128" cx="79.8" cy="249.13" r="3.5" transform="translate(-116.83 76.59) rotate(-30.97)"/><circle class="cls-129" cx="90.8" cy="243.13" r="3.5" transform="translate(-112.17 81.4) rotate(-30.97)"/><circle class="cls-130" cx="85.8" cy="246.13" r="3.5" transform="translate(-114.43 79.25) rotate(-30.97)"/><circle class="cls-131" cx="73.8" cy="253.13" r="3.5" transform="translate(-119.74 74.07) rotate(-30.97)"/><circle class="cls-132" cx="61.8" cy="260.13" r="3.5" transform="translate(-125.06 68.9) rotate(-30.97)"/><circle class="cls-133" cx="67.8" cy="257.13" r="3.5" transform="translate(-122.66 71.56) rotate(-30.97)"/><circle class="cls-134" cx="55.8" cy="264.13" r="3.5" transform="translate(-127.97 66.38) rotate(-30.97)"/><polygon class="cls-135" points="47.15 265.14 47.15 273.02 94.3 245.79 94.3 237.92 47.15 265.14"/></g><polygon class="cls-136" points="47.15 250.44 0 223.22 47.15 196 94.3 223.22 47.15 250.44"/><polygon class="cls-137" points="0 238.1 0 223.22 47.15 250.44 47.15 265.32 0 238.1"/><polygon class="cls-138" points="94.3 238.1 94.3 223.22 47.15 250.44 47.15 265.32 94.3 238.1"/></g></g></svg>